<?xml version="1.0" encoding="utf-8"?>
<!-- Generator: Adobe Illustrator 25.1.0, SVG Export Plug-In . SVG Version: 6.00 Build 0)  -->
<svg version="1.1" xmlns="http://www.w3.org/2000/svg" xmlns:xlink="http://www.w3.org/1999/xlink" x="0px" y="0px"
	 viewBox="0 0 1920 384" style="enable-background:new 0 0 1920 384;" xml:space="preserve">
<style type="text/css">
	.st0{fill:url(#SVGID_1_);}
	.st1{fill:url(#SVGID_2_);}
	.st2{fill:url(#SVGID_3_);}
	.st3{fill:url(#SVGID_4_);}
	.st4{fill:url(#SVGID_5_);}
	.st5{fill:url(#SVGID_6_);}
	.st6{fill:url(#SVGID_7_);}
	.st7{fill:#1D1D1B;}
	.st8{fill:none;stroke:#1D1D1B;stroke-width:8;stroke-miterlimit:10;}
	.st9{font-family:'ArialMT';}
	.st10{font-size:81.4152px;}
</style>
<g id="Calque_2">
	
		<linearGradient id="SVGID_1_" gradientUnits="userSpaceOnUse" x1="749.8164" y1="494.2327" x2="1004.4164" y2="347.9427" gradientTransform="matrix(1 0 0 -1 0 386)">
		<stop  offset="0" style="stop-color:#FFFFFF"/>
		<stop  offset="0" style="stop-color:#CD5355"/>
		<stop  offset="1" style="stop-color:#FAE56F"/>
	</linearGradient>
	<path class="st0" d="M855.13-48.32h-2.1l-1.5-1.4C852.52-48.83,853.8-48.33,855.13-48.32z"/>
	
		<linearGradient id="SVGID_2_" gradientUnits="userSpaceOnUse" x1="778.0933" y1="543.4374" x2="1032.6934" y2="397.1573" gradientTransform="matrix(1 0 0 -1 0 386)">
		<stop  offset="0" style="stop-color:#FFFFFF"/>
		<stop  offset="0" style="stop-color:#CD5355"/>
		<stop  offset="1" style="stop-color:#FAE56F"/>
	</linearGradient>
	<path class="st1" d="M851.53-49.72l1.5,1.4h2.1C853.8-48.33,852.52-48.83,851.53-49.72z M859.03-50.02c0.06-0.05,0.09-0.12,0.1-0.2
		c0.1,0,0.1,0,0.1-0.1S859.13-50.12,859.03-50.02z M1060.43-50.12h0.1l0.2,0.3L1060.43-50.12z M1062.53-58.92l-1.5,1.3l-0.3,0.3
		c1-1.02,2.37-1.6,3.8-1.6H1062.53z M1064.53-48.12h2.1l1.5-1.4C1067.15-48.63,1065.86-48.13,1064.53-48.12L1064.53-48.12z"/>
	
		<linearGradient id="SVGID_3_" gradientUnits="userSpaceOnUse" x1="751.8734" y1="497.8024" x2="1006.4734" y2="351.5125" gradientTransform="matrix(1 0 0 -1 0 386)">
		<stop  offset="0" style="stop-color:#FFFFFF"/>
		<stop  offset="0" style="stop-color:#CD5355"/>
		<stop  offset="1" style="stop-color:#FAE56F"/>
	</linearGradient>
	<path class="st2" d="M859.23-50.32c0,0.1,0,0.1-0.1,0.1c-0.01,0.08-0.04,0.15-0.1,0.2C859.13-50.12,859.23-50.22,859.23-50.32z"/>
	
		<linearGradient id="SVGID_4_" gradientUnits="userSpaceOnUse" x1="802.7133" y1="586.2847" x2="1057.3132" y2="440.0047" gradientTransform="matrix(1 0 0 -1 0 386)">
		<stop  offset="0" style="stop-color:#FFFFFF"/>
		<stop  offset="0" style="stop-color:#CD5355"/>
		<stop  offset="1" style="stop-color:#FAE56F"/>
	</linearGradient>
	<path class="st3" d="M1068.13-49.52l-1.5,1.4h-2.1C1065.86-48.13,1067.15-48.63,1068.13-49.52z"/>
	
		<linearGradient id="SVGID_5_" gradientUnits="userSpaceOnUse" x1="801.7475" y1="584.6146" x2="1056.3475" y2="438.3347" gradientTransform="matrix(1 0 0 -1 0 386)">
		<stop  offset="0" style="stop-color:#FFFFFF"/>
		<stop  offset="0" style="stop-color:#CD5355"/>
		<stop  offset="1" style="stop-color:#FAE56F"/>
	</linearGradient>
	<path class="st4" d="M1060.73-49.72l-0.2-0.3h-0.1L1060.73-49.72z"/>
	
		<linearGradient id="SVGID_6_" gradientUnits="userSpaceOnUse" x1="805.8078" y1="591.6852" x2="1060.4178" y2="445.3952" gradientTransform="matrix(1 0 0 -1 0 386)">
		<stop  offset="0" style="stop-color:#FFFFFF"/>
		<stop  offset="0" style="stop-color:#CD5355"/>
		<stop  offset="1" style="stop-color:#FAE56F"/>
	</linearGradient>
	<path class="st5" d="M1064.53-58.92c-1.43,0-2.8,0.58-3.8,1.6l0.3-0.3l1.5-1.3H1064.53z"/>
	
		<linearGradient id="SVGID_7_" gradientUnits="userSpaceOnUse" x1="711.374" y1="427.3133" x2="965.9739" y2="281.0333" gradientTransform="matrix(1 0 0 -1 0 386)">
		<stop  offset="0" style="stop-color:#FFFFFF"/>
		<stop  offset="0" style="stop-color:#CD5355"/>
		<stop  offset="1" style="stop-color:#FAE56F"/>
	</linearGradient>
	<path class="st6" d="M934.53,86.48L934.53,86.48l20.5,41.6L934.53,86.48z M985.13,86.58l-20.4,41.5L985.13,86.58z"/>
	<g>
		<path class="st7" d="M1910,8.01V374H10V8.01H1910 M1920-1.99H0V384h1920V-1.99L1920-1.99z"/>
	</g>
	<g>
		<path class="st7" d="M768.68,273.35h-22.99l-7.66,22.99h-5.27l18.68-57.47h11.01l19.15,57.47h-5.75L768.68,273.35z M766.76,268.55
			l-9.1-27.78h-1.44l-9.1,27.78H766.76z"/>
		<path class="st7" d="M789.75,238.86h18.2c13.89,0,22.03,3.35,22.03,16.28s-3.83,12.45-10.06,13.41v1.91h6.71
			c2.87,0,3.83,0.96,3.83,3.83v22.03h-5.27v-23.47h-30.17v23.47h-5.27L789.75,238.86L789.75,238.86z M807.95,268.08
			c10.53,0,16.28-0.96,16.28-11.98c0-11.01-5.75-12.45-16.28-12.45h-12.93v24.42L807.95,268.08L807.95,268.08z"/>
		<path class="st7" d="M866.85,238.38c13.2-0.8,24.56,9.25,25.36,22.45c0.01,0.18,0.02,0.36,0.03,0.54h-5.27
			c-1.44-11.98-8.14-18.68-20.12-18.68c-11.98,0-21.07,10.53-21.07,24.9c0,14.37,6.71,24.9,21.07,24.9
			c10.28,0.8,19.27-6.89,20.07-17.18c0.03-0.34,0.05-0.68,0.05-1.02h5.27c-0.51,13.22-11.63,23.52-24.84,23.02
			c-0.18-0.01-0.36-0.02-0.54-0.03c-16.76,0-26.34-12.93-26.34-29.69S850.09,238.38,866.85,238.38z"/>
		<path class="st7" d="M947.79,238.86v57.47h-5.27v-25.86h-34.96v25.86h-5.27v-57.47h5.27v26.82h34.96v-26.82H947.79z"/>
		<path class="st7" d="M976.52,243.65v48.37h12.93v4.31h-31.13v-4.31h12.93v-48.37h-12.93v-4.79h31.13v4.79H976.52z"/>
		<path class="st7" d="M1044.05,243.65h-20.12v52.68h-5.27v-52.68h-20.12v-4.79h45.5L1044.05,243.65L1044.05,243.65z"/>
		<path class="st7" d="M1052.67,238.86h34.48v4.79h-29.22v21.55h24.9V270h-24.9v22.03h29.22v4.31h-34.48V238.86L1052.67,238.86z"/>
		<path class="st7" d="M1119.24,238.38c13.2-0.8,24.56,9.25,25.36,22.45c0.01,0.18,0.02,0.36,0.03,0.54h-5.27
			c-1.44-11.98-8.14-18.68-20.12-18.68c-11.98,0-21.07,10.53-21.07,24.9c0,14.37,6.71,24.9,21.07,24.9
			c10.28,0.8,19.27-6.89,20.07-17.18c0.03-0.34,0.05-0.68,0.05-1.02h5.27c-0.51,13.22-11.63,23.52-24.84,23.02
			c-0.18-0.01-0.36-0.02-0.54-0.03c-16.76,0-26.34-12.93-26.34-29.69S1102.48,238.38,1119.24,238.38z"/>
		<path class="st7" d="M1191.07,243.65h-20.12v52.68h-5.27v-52.68h-20.12v-4.79h45.5L1191.07,243.65L1191.07,243.65z"/>
		<path class="st7" d="M1199.69,238.86h5.27v36.4c0,11.49,4.79,17.24,16.76,17.24c11.97,0,16.76-5.75,16.76-17.24v-36.4h5.27v36.4
			c0,14.37-6.71,22.03-22.03,22.03s-22.03-7.66-22.03-22.03V238.86z"/>
		<path class="st7" d="M1254.77,238.86h18.2c13.89,0,21.55,3.35,21.55,16.28s-3.83,12.45-9.58,13.41v1.91h6.23
			c3.35,0,4.31,0.96,4.31,3.83v22.03h-5.27v-23.47h-30.17v23.47h-5.27V238.86z M1272.97,268.08c10.06,0,16.28-0.96,16.28-11.98
			c0-11.01-6.23-12.45-16.28-12.45h-12.93v24.42L1272.97,268.08L1272.97,268.08z"/>
		<path class="st7" d="M1306.97,238.86h34.48v4.79h-29.22v21.55h24.9V270h-24.9v22.03h29.22v4.31h-34.48V238.86z"/>
		<rect x="578.55" y="45.86" class="st8" width="133.14" height="133.14"/>
		<text transform="matrix(1 0 0 1 622.6052 142.1202)" class="st7 st9 st10">E</text>
		<text transform="matrix(1 0 0 1 772.0261 142.1202)" class="st7 st9 st10">C</text>
		<rect x="736.59" y="45.86" class="st8" width="133.14" height="133.14"/>
		<rect x="578.55" y="203.42" class="st8" width="134.57" height="134.72"/>
		<text transform="matrix(1 0 0 1 618.7726 300.6392)" class="st7 st9 st10">V</text>
	</g>
</g>
<g id="Calque_1">
</g>
</svg>
