<?xml version="1.0" encoding="utf-8"?>
<!-- Generator: Adobe Illustrator 25.1.0, SVG Export Plug-In . SVG Version: 6.00 Build 0)  -->
<svg version="1.1" xmlns="http://www.w3.org/2000/svg" xmlns:xlink="http://www.w3.org/1999/xlink" x="0px" y="0px"
	 viewBox="0 0 1920 384" style="enable-background:new 0 0 1920 384;" xml:space="preserve">
<style type="text/css">
	.st0{fill:url(#SVGID_1_);}
	.st1{fill:url(#SVGID_2_);}
	.st2{fill:url(#SVGID_3_);}
	.st3{fill:url(#SVGID_4_);}
	.st4{fill:url(#SVGID_5_);}
	.st5{fill:url(#SVGID_6_);}
	.st6{fill:url(#SVGID_7_);}
	.st7{fill:#1D1D1B;}
	.st8{fill:url(#SVGID_8_);}
	.st9{fill:url(#SVGID_9_);}
	.st10{fill:url(#SVGID_10_);}
	.st11{font-family:'BookAntiqua';}
	.st12{font-size:120.8855px;}
	.st13{fill:url(#SVGID_11_);}
</style>
<g id="Calque_2">
	
		<linearGradient id="SVGID_1_" gradientUnits="userSpaceOnUse" x1="749.8164" y1="494.2327" x2="1004.4164" y2="347.9427" gradientTransform="matrix(1 0 0 -1 0 386)">
		<stop  offset="0" style="stop-color:#FFFFFF"/>
		<stop  offset="0" style="stop-color:#CD5355"/>
		<stop  offset="1" style="stop-color:#FAE56F"/>
	</linearGradient>
	<path class="st0" d="M855.13-48.32h-2.1l-1.5-1.4C852.52-48.83,853.8-48.33,855.13-48.32z"/>
	
		<linearGradient id="SVGID_2_" gradientUnits="userSpaceOnUse" x1="778.0933" y1="543.4374" x2="1032.6934" y2="397.1573" gradientTransform="matrix(1 0 0 -1 0 386)">
		<stop  offset="0" style="stop-color:#FFFFFF"/>
		<stop  offset="0" style="stop-color:#CD5355"/>
		<stop  offset="1" style="stop-color:#FAE56F"/>
	</linearGradient>
	<path class="st1" d="M851.53-49.72l1.5,1.4h2.1C853.8-48.33,852.52-48.83,851.53-49.72z M859.03-50.02c0.06-0.05,0.09-0.12,0.1-0.2
		c0.1,0,0.1,0,0.1-0.1S859.13-50.12,859.03-50.02z M1060.43-50.12h0.1l0.2,0.3L1060.43-50.12z M1062.53-58.92l-1.5,1.3l-0.3,0.3
		c1-1.02,2.37-1.6,3.8-1.6H1062.53z M1064.53-48.12h2.1l1.5-1.4C1067.15-48.63,1065.86-48.13,1064.53-48.12L1064.53-48.12z"/>
	
		<linearGradient id="SVGID_3_" gradientUnits="userSpaceOnUse" x1="751.8734" y1="497.8024" x2="1006.4734" y2="351.5125" gradientTransform="matrix(1 0 0 -1 0 386)">
		<stop  offset="0" style="stop-color:#FFFFFF"/>
		<stop  offset="0" style="stop-color:#CD5355"/>
		<stop  offset="1" style="stop-color:#FAE56F"/>
	</linearGradient>
	<path class="st2" d="M859.23-50.32c0,0.1,0,0.1-0.1,0.1c-0.01,0.08-0.04,0.15-0.1,0.2C859.13-50.12,859.23-50.22,859.23-50.32z"/>
	
		<linearGradient id="SVGID_4_" gradientUnits="userSpaceOnUse" x1="802.7133" y1="586.2847" x2="1057.3132" y2="440.0047" gradientTransform="matrix(1 0 0 -1 0 386)">
		<stop  offset="0" style="stop-color:#FFFFFF"/>
		<stop  offset="0" style="stop-color:#CD5355"/>
		<stop  offset="1" style="stop-color:#FAE56F"/>
	</linearGradient>
	<path class="st3" d="M1068.13-49.52l-1.5,1.4h-2.1C1065.86-48.13,1067.15-48.63,1068.13-49.52z"/>
	
		<linearGradient id="SVGID_5_" gradientUnits="userSpaceOnUse" x1="801.7475" y1="584.6146" x2="1056.3475" y2="438.3347" gradientTransform="matrix(1 0 0 -1 0 386)">
		<stop  offset="0" style="stop-color:#FFFFFF"/>
		<stop  offset="0" style="stop-color:#CD5355"/>
		<stop  offset="1" style="stop-color:#FAE56F"/>
	</linearGradient>
	<path class="st4" d="M1060.73-49.72l-0.2-0.3h-0.1L1060.73-49.72z"/>
	
		<linearGradient id="SVGID_6_" gradientUnits="userSpaceOnUse" x1="805.8078" y1="591.6852" x2="1060.4178" y2="445.3952" gradientTransform="matrix(1 0 0 -1 0 386)">
		<stop  offset="0" style="stop-color:#FFFFFF"/>
		<stop  offset="0" style="stop-color:#CD5355"/>
		<stop  offset="1" style="stop-color:#FAE56F"/>
	</linearGradient>
	<path class="st5" d="M1064.53-58.92c-1.43,0-2.8,0.58-3.8,1.6l0.3-0.3l1.5-1.3H1064.53z"/>
	
		<linearGradient id="SVGID_7_" gradientUnits="userSpaceOnUse" x1="711.374" y1="427.3133" x2="965.9739" y2="281.0333" gradientTransform="matrix(1 0 0 -1 0 386)">
		<stop  offset="0" style="stop-color:#FFFFFF"/>
		<stop  offset="0" style="stop-color:#CD5355"/>
		<stop  offset="1" style="stop-color:#FAE56F"/>
	</linearGradient>
	<path class="st6" d="M934.53,86.48L934.53,86.48l20.5,41.6L934.53,86.48z M985.13,86.58l-20.4,41.5L985.13,86.58z"/>
	<g>
		<g>
			<circle class="st7" cx="417.86" cy="192" r="137.78"/>
			
				<linearGradient id="SVGID_8_" gradientUnits="userSpaceOnUse" x1="264.2105" y1="182.7435" x2="381.5682" y2="115.3158" gradientTransform="matrix(1 0 0 -1 0 386)">
				<stop  offset="0" style="stop-color:#FFFFFF"/>
				<stop  offset="0" style="stop-color:#CD5355"/>
				<stop  offset="1" style="stop-color:#FAE56F"/>
			</linearGradient>
			<path class="st8" d="M403.57,275.94h-34.39c-1.37,0-2.49-1.12-2.49-2.49c0-1.37,1.11-2.48,2.49-2.49h34.39
				c1.37,0,2.49,1.11,2.49,2.49C406.07,274.82,404.95,275.94,403.57,275.94C403.58,275.94,403.57,275.94,403.57,275.94z"/>
			
				<linearGradient id="SVGID_9_" gradientUnits="userSpaceOnUse" x1="315.933" y1="272.7623" x2="433.2907" y2="205.3347" gradientTransform="matrix(1 0 0 -1 0 386)">
				<stop  offset="0" style="stop-color:#FFFFFF"/>
				<stop  offset="0" style="stop-color:#CD5355"/>
				<stop  offset="1" style="stop-color:#FAE56F"/>
			</linearGradient>
			<path class="st9" d="M492.07,148.67l-20.56-20.6l17.7-15.63c1.01-0.92,1.1-2.48,0.18-3.5c-0.85-1.02-2.36-1.15-3.38-0.3
				c-0.03,0.02-0.05,0.05-0.08,0.07l-20.74,18.35h0.92c-0.66,0-1.29,0.27-1.75,0.74l0.14-0.14l0.69-0.6h-36.83
				c-0.66,0.01-1.29,0.27-1.75,0.74l-8.71,8.67l-8.8-8.76c-0.47-0.46-1.09-0.73-1.75-0.74h-36.83l-20.74-18.35
				c-1.01-0.89-2.56-0.79-3.45,0.22c0,0-0.01,0.01-0.01,0.01c-0.91,1.02-0.83,2.58,0.18,3.5l17.7,15.67l-20.56,20.56
				c-0.46,0.47-0.73,1.09-0.74,1.75v19.22c0.01,0.67,0.27,1.31,0.74,1.8l8.9,8.9l-0.74,42.82c-0.02,0.67,0.23,1.32,0.69,1.8
				L365.64,238h0.05l18.39,18.44c0.47,0.45,1.1,0.7,1.75,0.69h31.34c0.21,0.08,0.43,0.11,0.65,0.09h32.08
				c0.66-0.01,1.29-0.27,1.75-0.74l18.44-18.44h0.05L483.18,225c0.48-0.47,0.75-1.12,0.74-1.8l-0.74-42.82l8.9-8.99
				c0.47-0.46,0.74-1.09,0.74-1.75v-19.22C492.8,149.76,492.54,149.14,492.07,148.67z M464.37,131.29l-0.09-0.14h-0.05
				L464.37,131.29z M406.34,131.94l9.63,9.63c0.27,0.31,0.6,0.56,0.97,0.74c0.94,0.36,2,0.14,2.72-0.55l9.73-9.73h30.19
				l-19.31,17.06l0,0l-3.41,3.04h-0.05c0,0.05-0.05,0.05-0.05,0.09l-18.85,16.64l-41.76-36.92H406.34z M442.8,153.46h13.97v14.61
				h-15.9v-12.91L442.8,153.46z M425.19,191.68l-7.33,14.84l-7.33-14.93l7.33-13.97L425.19,191.68z M394.86,155.08v12.95h-15.9
				v-14.66h13.97L394.86,155.08z M371.49,131.02c0,0.05,0,0.05-0.05,0.05c0,0.04-0.02,0.07-0.05,0.09
				C371.44,131.11,371.49,131.06,371.49,131.02z M364.9,230.21l-8.11-8.11l0.65-36.97l7.47,7.47V230.21z M356.79,177.48l-8.9-8.94
				v-17.15l19.41-19.45h1.34l-0.69-0.65c0.45,0.41,1.05,0.64,1.66,0.65h-0.97l18.67,16.5h-10.79c-1.37,0-2.49,1.11-2.49,2.49
				c0,0,0,0,0,0v19.54c0,1.37,1.11,2.49,2.49,2.49l0,0h20.83c1.37,0,2.49-1.11,2.49-2.49c0,0,0,0,0,0V159.5l14.98,13.23l-8.57,16.36
				h-37.8L356.79,177.48z M465.85,235.28l-16.96,16.96h-62.04l-16.96-17.01v-41.16h36.32l9.45,19.18c0.6,1.23,2.1,1.75,3.33,1.14
				c0.5-0.24,0.9-0.64,1.14-1.14l9.4-19.13h36.32L465.85,235.28z M470.82,230.3v-37.61l7.47-7.47l0.65,36.97L470.82,230.3z
				 M487.83,168.63l-8.9,8.94h-0.05l-11.62,11.57h-37.8l-8.53-16.36l14.98-13.28v11.02c0,1.36,1.09,2.46,2.44,2.49h20.83
				c1.37,0,2.49-1.11,2.49-2.49c0,0,0,0,0,0v-19.54c0-1.37-1.11-2.49-2.49-2.49l0,0h-10.79l18.67-16.46h-0.97
				c0.61,0,1.2-0.23,1.66-0.65l-0.69,0.65h1.34l19.41,19.41V168.63z"/>
			
				<linearGradient id="SVGID_10_" gradientUnits="userSpaceOnUse" x1="279.7958" y1="209.8693" x2="397.1536" y2="142.4416" gradientTransform="matrix(1 0 0 -1 0 386)">
				<stop  offset="0" style="stop-color:#FFFFFF"/>
				<stop  offset="0" style="stop-color:#CD5355"/>
				<stop  offset="1" style="stop-color:#FAE56F"/>
			</linearGradient>
			<path class="st10" d="M466.54,276.03h-34.39c-1.37,0-2.49-1.11-2.49-2.49c0-1.37,1.11-2.49,2.49-2.49c0,0,0.01,0,0.01,0h34.39
				c1.37,0,2.49,1.12,2.49,2.49C469.02,274.92,467.91,276.03,466.54,276.03z"/>
		</g>
		<text transform="matrix(1 0 0 1 620.1226 224.3047)" class="st11 st12">La chouette agence</text>
	</g>
	<g>
		<linearGradient id="SVGID_11_" gradientUnits="userSpaceOnUse" x1="0" y1="191.0075" x2="1920" y2="191.0075">
			<stop  offset="0" style="stop-color:#FFFFFF"/>
			<stop  offset="0" style="stop-color:#CD5355"/>
			<stop  offset="1" style="stop-color:#FAE56F"/>
		</linearGradient>
		<path class="st13" d="M1910,8.01V374H10V8.01H1910 M1920-1.99H0V384h1920V-1.99L1920-1.99z"/>
	</g>
</g>
<g id="Calque_1">
</g>
</svg>
