<?xml version="1.0" encoding="utf-8"?>
<!-- Generator: Adobe Illustrator 25.1.0, SVG Export Plug-In . SVG Version: 6.00 Build 0)  -->
<svg version="1.1" xmlns="http://www.w3.org/2000/svg" xmlns:xlink="http://www.w3.org/1999/xlink" x="0px" y="0px"
	 viewBox="0 0 1920 384" style="enable-background:new 0 0 1920 384;" xml:space="preserve">
<style type="text/css">
	.st0{fill:url(#SVGID_1_);}
	.st1{fill:url(#SVGID_2_);}
	.st2{fill:url(#SVGID_3_);}
	.st3{fill:url(#SVGID_4_);}
	.st4{fill:url(#SVGID_5_);}
	.st5{fill:url(#SVGID_6_);}
	.st6{fill:#00983A;}
	.st7{fill:#3AAA35;}
	.st8{fill:#FFFFFF;}
	.st9{fill:none;}
	.st10{font-family:'ArialMT';}
	.st11{font-size:150px;}
</style>
<g id="Calque_2">
	
		<linearGradient id="SVGID_1_" gradientUnits="userSpaceOnUse" x1="749.8164" y1="494.2327" x2="1004.4164" y2="347.9427" gradientTransform="matrix(1 0 0 -1 0 386)">
		<stop  offset="0" style="stop-color:#FFFFFF"/>
		<stop  offset="0" style="stop-color:#CD5355"/>
		<stop  offset="1" style="stop-color:#FAE56F"/>
	</linearGradient>
	<path class="st0" d="M855.13-48.32h-2.1l-1.5-1.4C852.52-48.83,853.8-48.33,855.13-48.32z"/>
	
		<linearGradient id="SVGID_2_" gradientUnits="userSpaceOnUse" x1="778.0933" y1="543.4374" x2="1032.6934" y2="397.1573" gradientTransform="matrix(1 0 0 -1 0 386)">
		<stop  offset="0" style="stop-color:#FFFFFF"/>
		<stop  offset="0" style="stop-color:#CD5355"/>
		<stop  offset="1" style="stop-color:#FAE56F"/>
	</linearGradient>
	<path class="st1" d="M851.53-49.72l1.5,1.4h2.1C853.8-48.33,852.52-48.83,851.53-49.72z M859.03-50.02c0.06-0.05,0.09-0.12,0.1-0.2
		c0.1,0,0.1,0,0.1-0.1S859.13-50.12,859.03-50.02z M1060.43-50.12h0.1l0.2,0.3L1060.43-50.12z M1062.53-58.92l-1.5,1.3l-0.3,0.3
		c1-1.02,2.37-1.6,3.8-1.6H1062.53z M1064.53-48.12h2.1l1.5-1.4C1067.15-48.63,1065.86-48.13,1064.53-48.12L1064.53-48.12z"/>
	
		<linearGradient id="SVGID_3_" gradientUnits="userSpaceOnUse" x1="751.8734" y1="497.8024" x2="1006.4734" y2="351.5125" gradientTransform="matrix(1 0 0 -1 0 386)">
		<stop  offset="0" style="stop-color:#FFFFFF"/>
		<stop  offset="0" style="stop-color:#CD5355"/>
		<stop  offset="1" style="stop-color:#FAE56F"/>
	</linearGradient>
	<path class="st2" d="M859.23-50.32c0,0.1,0,0.1-0.1,0.1c-0.01,0.08-0.04,0.15-0.1,0.2C859.13-50.12,859.23-50.22,859.23-50.32z"/>
	
		<linearGradient id="SVGID_4_" gradientUnits="userSpaceOnUse" x1="802.7133" y1="586.2847" x2="1057.3132" y2="440.0047" gradientTransform="matrix(1 0 0 -1 0 386)">
		<stop  offset="0" style="stop-color:#FFFFFF"/>
		<stop  offset="0" style="stop-color:#CD5355"/>
		<stop  offset="1" style="stop-color:#FAE56F"/>
	</linearGradient>
	<path class="st3" d="M1068.13-49.52l-1.5,1.4h-2.1C1065.86-48.13,1067.15-48.63,1068.13-49.52z"/>
	
		<linearGradient id="SVGID_5_" gradientUnits="userSpaceOnUse" x1="801.7475" y1="584.6146" x2="1056.3475" y2="438.3347" gradientTransform="matrix(1 0 0 -1 0 386)">
		<stop  offset="0" style="stop-color:#FFFFFF"/>
		<stop  offset="0" style="stop-color:#CD5355"/>
		<stop  offset="1" style="stop-color:#FAE56F"/>
	</linearGradient>
	<path class="st4" d="M1060.73-49.72l-0.2-0.3h-0.1L1060.73-49.72z"/>
	
		<linearGradient id="SVGID_6_" gradientUnits="userSpaceOnUse" x1="805.8078" y1="591.6852" x2="1060.4178" y2="445.3952" gradientTransform="matrix(1 0 0 -1 0 386)">
		<stop  offset="0" style="stop-color:#FFFFFF"/>
		<stop  offset="0" style="stop-color:#CD5355"/>
		<stop  offset="1" style="stop-color:#FAE56F"/>
	</linearGradient>
	<path class="st5" d="M1064.53-58.92c-1.43,0-2.8,0.58-3.8,1.6l0.3-0.3l1.5-1.3H1064.53z"/>
	<g>
		<path class="st6" d="M1910,8.01V374H10V8.01H1910 M1920-1.99H0V384h1920V-1.99L1920-1.99z"/>
	</g>
	<g>
		<g>
			<circle class="st7" cx="335.85" cy="192" r="156.94"/>
			<path class="st8" d="M237.29,119.49c-4.4,2.17-8.43,5.03-11.93,8.47c-3.18,3.39-5.55,7.48-6.91,11.93
				c-2.09,8.94-1.66,18.29,1.26,26.99c5.33,18.21,15.69,34.84,26.37,50.85c5.65,8.16,11.62,15.69,17.58,22.91
				c5.96,7.22,6.28,7.53,9.73,10.99c3.08,3.2,6.33,6.24,9.73,9.11l1.89,1.57c0,0,0.31,0-0.31-0.31c-1.11-0.38-2.29-0.49-3.45-0.31
				h-1.89c-0.92,0.02-1.8,0.35-2.51,0.94c-0.97,0.56-1.83,1.31-2.51,2.2l-1.26,1.89c-0.73,1.23-1.05,2.66-0.94,4.08v-6.59
				c-0.31-5.12-0.31-10.26,0-15.38c0.06-10.41,0.9-20.79,2.51-31.08c3.15-21.42,10.98-41.89,22.91-59.95
				c6.22-9.01,13.85-16.96,22.6-23.54c8.86-6.55,18.72-11.63,29.19-15.07c10.3-3.07,20.96-4.76,31.7-5.02
				c10.56,0.05,21.08,1.2,31.39,3.45c10.06,2.39,19.77,6.09,28.88,10.99c4.47,2.42,8.77,5.15,12.87,8.16
				c4.11,3.06,7.8,6.65,10.99,10.67c-8.02-5.71-16.93-10.06-26.37-12.87c-9.31-2.82-18.88-4.71-28.57-5.65
				c-9.41-0.89-18.89-0.68-28.25,0.63c-9.05,1.15-17.92,3.47-26.37,6.91c-16.66,6.73-30.81,18.46-40.49,33.59
				c-9.53,15.65-15.82,33.04-18.52,51.17c-1.57,9.42-2.51,18.84-3.14,28.25c-0.63,9.42-0.31,9.73-0.31,14.44v6.28
				c0.17,2.03-0.16,4.08-0.94,5.96l-1.57,2.51l-2.82,2.2l-3.14,1.26h-2.2c-0.94,0.31-1.26,0-1.89,0h-3.14l-3.77-2.2l-4.08-3.14
				c-4.01-3.74-7.79-7.72-11.3-11.93c-3.14-4.08-6.59-8.16-9.42-12.24c-2.82-4.08-11.62-16.95-16.95-25.74l-7.22-13.5
				c-2.2-4.71-4.4-9.42-6.28-14.13c-4.06-9.68-7.01-19.79-8.79-30.13c-0.68-5.2-0.9-10.46-0.63-15.69
				c0.24-5.46,1.63-10.81,4.08-15.69c2.38-4.88,5.94-9.09,10.36-12.24C227.74,122.76,232.4,120.75,237.29,119.49z"/>
			<path class="st8" d="M324.55,207.07c-0.63,1.26,0,2.2,0.31,3.14c0.48,1.03,1.24,1.9,2.2,2.51c1.58,1.52,3.52,2.6,5.65,3.14
				c4.21,1.05,8.61,1.16,12.87,0.31c4.08-0.31,9.11-1.57,13.5-2.2l14.13-2.51l27.94-4.4l28.25-3.45l11.93-1.26l-3.77,11.3
				c-4.21,13.02-11.29,24.92-20.72,34.84c-9.31,9.52-20.26,17.29-32.33,22.91c-5.93,2.9-12.13,5.21-18.52,6.91
				c-6.45,1.73-13.1,2.68-19.77,2.82c-6.8-0.1-13.47-1.82-19.46-5.02c-2.91-1.56-5.47-3.7-7.53-6.28c-1.04-1.4-1.79-3.01-2.2-4.71
				c-0.28-0.81-0.39-1.66-0.31-2.51c0.35-0.75,0.89-1.4,1.57-1.89c-0.98,1.14-1.11,2.8-0.31,4.08c0.77,1.28,1.71,2.45,2.82,3.45
				c2.33,1.84,5,3.23,7.85,4.08c5.57,1.79,11.46,2.33,17.26,1.57c5.81-1.09,11.49-2.78,16.95-5.02c5.52-2.35,10.87-5.07,16.01-8.16
				c10.14-5.92,19.25-13.45,26.99-22.29c7.54-8.62,13.3-18.65,16.95-29.51l8.16,10.04c-9.42,1.26-18.84,2.2-28.25,2.82
				c-9.42,0.63-18.84,1.26-28.25,1.89l-14.13,0.63c-5.02,0-9.42,0.31-14.75,0c-5.19-0.35-10.23-1.85-14.75-4.4
				c-2.32-1.38-4.26-3.33-5.65-5.65c-0.71-1.05-1.24-2.22-1.57-3.45C323.44,209.5,323.77,208.16,324.55,207.07z"/>
		</g>
		<rect x="696.65" y="107.28" class="st9" width="1044.44" height="169.44"/>
		<text transform="matrix(1 0 0 1 696.6517 245.6985)" class="st10 st11">CV et Portfolio</text>
	</g>
</g>
<g id="Calque_1">
</g>
</svg>
