<?xml version="1.0" encoding="utf-8"?>
<!-- Generator: Adobe Illustrator 25.1.0, SVG Export Plug-In . SVG Version: 6.00 Build 0)  -->
<svg version="1.1" xmlns="http://www.w3.org/2000/svg" xmlns:xlink="http://www.w3.org/1999/xlink" x="0px" y="0px"
	 viewBox="0 0 1920 384" style="enable-background:new 0 0 1920 384;" xml:space="preserve">
<style type="text/css">
	.st0{fill:none;stroke:#3345FF;stroke-width:10;stroke-miterlimit:10;}
	.st1{fill:#3345FF;}
</style>
<g id="Calque_2">
	<rect class="st0" width="1920" height="384"/>
	<g id="Calque_2_1_">
		<g>
			<path class="st1" d="M611.95,258.76c-2.25-7.08-4.66-13.47-6.91-19c-2.07-5.53-3.97-10.19-5.53-14.16
				c-8.98,2.94-18.82,5.01-29.35,6.21c0,14.68,0.34,27.28,1.04,37.64c0.17,6.39,0.52,11.92,0.69,16.57
				c0.52,4.32,0.86,8.12,1.04,11.4c0.52,3.28,0.86,6.05,1.38,8.63c0.52,2.76,1.21,5.35,2.07,7.94c-4.66,3.46-9.15,6.05-13.47,7.6
				c-4.14,1.55-7.77,2.76-11.05,3.46c-3.97,0.86-7.42,1.21-10.36,0.69c-1.21-3.28-2.25-6.73-3.11-10.36
				c-0.86-3.46-1.55-8.29-2.07-14.5c-0.17-6.05-0.34-13.64-0.34-23.14s0.34-21.58,1.04-36.26c0.17-1.55,0.34-3.28,0.34-4.83
				s0.18-3.28,0.34-4.83c-2.07-0.18-4.32-0.52-6.56-0.69c-2.07-0.18-4.14-0.52-6.21-0.69c-1.38-3.62-2.25-6.91-2.76-9.67
				c-0.52-2.94-0.69-5.35-0.69-7.25c0-2.25,0.18-4.14,0.69-5.53c3.62,0.69,7.42,1.04,11.05,1.04h5.18
				c0.52-9.67,0.86-19.51,1.38-29.35c0.52-10.19,0.86-19.86,1.04-29.35c0.52-9.67,0.86-18.82,1.04-27.28
				c0.17-8.81,0.52-16.75,0.69-23.83c-6.91,4.66-12.95,10.53-17.96,17.96c-5.01,7.42-8.46,15.88-10.36,25.55
				c-2.94-0.52-5.53-1.9-7.6-4.14c-2.07-2.59-3.8-5.01-5.18-7.6c-1.55-2.94-2.94-6.39-4.14-10.01c-1.21-4.32-1.21-8.81,0-13.13
				c1.21-4.66,2.94-8.81,5.18-12.78c2.25-4.14,5.01-7.77,7.94-10.7c2.94-3.28,5.87-5.7,8.63-7.6c4.83-2.94,9.84-5.7,14.85-7.94
				c5.35-2.59,11.22-4.66,17.61-6.21c2.59-2.59,5.35-4.83,8.29-6.91c3.28-2.07,6.21-3.28,8.98-3.8c3.97-0.86,6.05,1.55,6.56,7.25
				c2.07-0.18,4.32-0.34,6.56-0.34c2.25-0.18,4.66-0.34,7.25-0.34c8.81,0,17.79,1.38,27.28,4.14s18.13,7.25,25.9,13.47
				C650.44,82.13,657,90.07,662,99.92c5.01,9.67,7.6,21.58,7.6,35.57c0,15.88-3.8,30.56-11.4,43.85
				c-7.42,13.29-17.96,24.35-31.77,33.15c1.55,4.14,3.62,9.33,6.21,15.54c2.59,6.21,5.01,13.29,7.6,21.07
				c3.62,9.67,7.6,18.82,11.74,27.28c4.32,8.29,8.81,15.54,13.47,21.75s9.49,11.22,14.5,14.85c5.01,3.97,10.19,6.21,15.2,6.91
				c-2.94,4.66-6.39,7.77-10.36,9.67c-3.97,1.9-7.77,2.94-11.74,3.46c-4.32,0.69-8.98,0.69-13.81,0
				c-6.73-1.38-12.43-4.66-17.27-9.67s-9.15-11.22-12.78-18.3c-3.46-7.08-6.73-14.68-9.67-22.79
				C616.78,273.95,614.19,266.19,611.95,258.76z M571.89,111.66c0,5.01-0.18,11.22-0.34,18.3c-0.17,7.08-0.52,14.85-0.69,23.14
				c0,8.29-0.17,17.09-0.34,26.24c-0.18,8.98-0.34,17.96-0.34,26.94c6.21-0.86,12.95-2.41,20.37-4.49
				c7.6-2.07,14.68-5.53,21.07-10.36c6.39-4.83,11.92-11.22,16.23-19.34c4.32-8.12,6.56-18.48,6.56-31.08
				c0-9.67-1.73-17.79-5.18-24.52c-3.28-6.91-7.42-12.43-12.78-16.57c-5.35-4.32-11.22-7.42-17.61-9.33
				c-6.21-2.07-12.43-3.11-18.65-3.11c-1.21,0-2.25,0-3.46,0c-1.21,0-2.41,0.18-3.8,0.34C572.24,95.25,571.89,103.2,571.89,111.66z
				 M734.88,298.13c-16.06,0-28.49-5.35-37.29-16.23c-8.81-10.88-13.13-25.03-13.13-42.48c0-12.26,1.73-23.66,5.18-34.18
				c3.62-10.88,8.46-20.2,14.5-27.97c6.05-7.77,12.95-13.99,20.72-18.3c8.12-4.66,16.4-6.91,25.21-6.91
				c8.46,0,15.71,3.11,21.75,9.33c6.05,6.05,8.98,14.68,8.98,25.9c0,7.42-1.55,14.68-4.83,22.1c-3.28,7.08-7.42,13.64-12.78,19.34
				c-5.01,5.53-10.7,10.01-16.92,13.47s-12.26,5.18-17.96,5.18c-3.62,0-6.73-0.52-9.33-1.38c-2.59-0.86-4.83-2.25-6.91-4.14
				c0.69,13.13,3.62,22.27,8.63,27.62c5.01,5.01,11.57,7.6,19.68,7.6c5.53,0,10.36-1.21,14.5-3.46c4.32-2.25,8.12-5.01,11.05-7.94
				c2.93-2.93,5.35-6.05,7.25-8.98c1.9-3.28,3.11-5.7,3.8-7.25c0.69-1.38,1.9-2.07,3.46-2.07c1.9,0,2.76,1.38,2.76,4.14
				c0,2.59-0.86,6.39-2.76,11.74c-1.55,5.01-4.32,10.19-8.29,15.54c-3.97,5.01-8.98,9.49-15.2,13.47
				C750.93,296.23,743.51,298.13,734.88,298.13z M750.77,166.91c-1.38,0-3.97,1.55-7.94,4.49c-3.62,2.76-7.77,6.91-12.08,12.43
				c-4.14,5.53-8.12,12.26-11.74,20.03c-3.46,7.6-5.7,16.23-6.56,25.9c13.81-3.28,24.69-8.29,32.81-15.2
				c8.12-6.91,12.08-17.09,12.08-30.39c0-6.73-0.86-11.22-2.41-13.47C753.18,168.11,751.8,166.91,750.77,166.91z M857.81,228.71
				c5.01,1.9,9.84,3.62,14.5,5.18c4.66,1.55,8.63,3.62,12.08,5.87c3.45,2.25,6.21,5.01,8.29,8.29c2.07,2.94,3.11,6.73,3.11,11.4
				c0,5.53-1.21,10.7-3.8,15.54c-2.25,4.83-5.7,9.15-10.36,12.78c-4.66,3.62-10.19,6.56-16.92,8.63
				c-6.39,2.25-13.64,3.46-21.75,3.46c-8.98,0-16.23-0.86-21.75-2.76c-5.53-1.55-9.84-3.62-12.78-5.87
				c-2.94-2.25-5.01-4.66-5.87-6.91c-0.86-2.25-1.38-4.14-1.38-5.53c0-2.76,0.52-5.7,1.73-8.98c1.21-3.46,3.28-7.08,6.56-11.05
				c1.38-1.55,2.94-3.11,4.49-4.49c3.28-2.76,6.39-4.49,9.67-5.18c-0.52,5.35,0.17,9.67,1.73,13.13c1.9,3.28,4.14,5.7,6.91,7.6
				c2.94,1.9,6.21,3.11,9.67,3.8c3.62,0.69,7.08,1.04,10.36,1.04c3.28,0,6.39-0.52,9.67-1.38c3.46-0.86,6.56-2.07,9.33-3.46
				c2.76-1.55,5.01-3.28,6.56-5.18c1.9-2.07,2.76-4.32,2.76-6.56c0-2.59-1.04-4.66-3.11-6.21c-2.07-1.55-4.66-2.94-7.94-3.8
				c-2.94-1.21-6.39-1.9-10.01-2.41c-3.46-0.69-6.73-1.38-10.01-2.07c-3.28-0.69-7.6-1.55-13.13-2.76
				c-5.35-1.38-10.53-3.46-15.88-6.21c-5.01-2.76-9.49-6.39-13.47-11.05c-3.62-4.66-5.53-10.7-5.53-18.3
				c0-8.81,2.25-16.4,6.56-22.79c4.66-6.73,10.19-12.26,16.57-16.57c6.73-4.66,13.64-8.12,21.07-10.36
				c7.42-2.25,13.99-3.46,19.68-3.46c2.94,0,6.21,0.52,9.67,1.38c3.46,0.69,6.73,2.07,9.67,4.14c2.94,1.9,5.35,4.32,7.25,7.6
				c2.07,3.28,3.11,7.42,3.11,12.43s-0.52,9.15-1.38,12.43c-0.69,2.94-1.9,5.35-3.46,7.25c-1.38,1.55-3.11,2.59-5.18,3.11
				c-2.07,0.52-4.49,0.69-7.25,0.69c-1.9,0-3.62-0.18-5.18-0.69c-1.38-0.52-2.94-0.86-4.49-1.38c-1.55-0.52-3.11-1.21-4.49-2.41
				c2.25-2.76,3.97-5.35,5.18-7.94c1.38-2.59,2.07-5.7,2.07-9.33c0-3.28-0.86-6.05-2.76-8.63c-1.55-2.59-4.32-3.8-8.29-3.8
				c-4.14,0-8.12,0.86-12.08,2.41c-3.62,1.55-7.08,3.8-10.01,6.56c-2.76,2.76-5.01,6.05-6.91,9.67c-1.55,3.46-2.41,7.25-2.41,11.4
				c0,6.21,2.25,12.08,6.91,17.61C840.2,220.09,847.63,224.75,857.81,228.71z M962.1,298.13c-16.06,0-28.49-5.35-37.29-16.23
				c-8.81-10.88-13.13-25.03-13.13-42.48c0-12.26,1.73-23.66,5.18-34.18c3.62-10.88,8.46-20.2,14.5-27.97
				c6.05-7.77,12.95-13.99,20.72-18.3c8.12-4.66,16.4-6.91,25.21-6.91c8.46,0,15.71,3.11,21.75,9.33c6.05,6.05,8.98,14.68,8.98,25.9
				c0,7.42-1.55,14.68-4.83,22.1c-3.28,7.08-7.42,13.64-12.78,19.34c-5.01,5.53-10.7,10.01-16.92,13.47s-12.26,5.18-17.96,5.18
				c-3.62,0-6.73-0.52-9.33-1.38c-2.59-0.86-4.83-2.25-6.91-4.14c0.69,13.13,3.62,22.27,8.63,27.62c5.01,5.01,11.57,7.6,19.68,7.6
				c5.53,0,10.36-1.21,14.5-3.46c4.32-2.25,8.12-5.01,11.05-7.94c2.94-2.94,5.35-6.05,7.25-8.98c1.9-3.28,3.11-5.7,3.8-7.25
				c0.69-1.38,1.9-2.07,3.46-2.07c1.9,0,2.76,1.38,2.76,4.14c0,2.59-0.86,6.39-2.76,11.74c-1.55,5.01-4.32,10.19-8.29,15.54
				c-3.97,5.01-8.98,9.49-15.2,13.47C978.16,296.23,970.74,298.13,962.1,298.13z M977.81,166.91c-1.38,0-3.97,1.55-7.94,4.49
				c-3.62,2.76-7.77,6.91-12.08,12.43c-4.14,5.53-8.12,12.26-11.74,20.03c-3.46,7.6-5.7,16.23-6.56,25.9
				c13.81-3.28,24.69-8.29,32.81-15.2c8.12-6.91,12.08-17.09,12.08-30.39c0-6.73-0.86-11.22-2.41-13.47
				C980.4,168.11,979.02,166.91,977.81,166.91z M1123.88,188.32c0,3.28-0.86,6.56-2.76,10.01c-1.55,3.28-3.62,6.39-6.21,9.33
				c-2.59,2.94-5.35,5.7-8.63,7.94c-2.94,2.07-5.87,3.28-8.63,3.8c1.9-7.08,2.41-12.6,1.73-16.57c-0.69-3.97-1.9-6.73-3.46-8.63
				c-1.9-2.07-4.14-3.28-6.91-3.46c-4.14,0-8.12,2.41-12.08,7.25c-3.62,4.66-6.91,10.36-9.67,17.27
				c-2.76,6.73-5.01,13.99-6.56,21.75c-1.55,7.6-2.41,14.5-2.41,20.72c-0.18,4.32-0.18,8.63,0.34,12.78
				c0.18,3.46,0.52,7.08,1.04,10.7c0.69,3.62,1.55,6.56,2.76,8.63c-1.38,1.21-3.62,2.59-6.91,4.14c-2.94,1.55-6.21,2.59-9.67,3.11
				c-3.28,0.52-6.21-0.17-8.98-1.73c-2.59-1.55-3.97-5.01-4.14-10.36c-0.52-5.01-0.86-10.7-1.04-16.92c0-6.39,0-12.78,0-19
				c0.17-6.39,0.52-12.78,0.69-19c0.17-6.21,0.52-11.92,1.04-17.27c0.52-10.19,0.69-17.96,0.69-23.48c0-5.53-0.18-10.88-0.34-15.88
				c0-0.86,1.55-2.25,4.49-3.8c3.28-1.9,6.73-3.46,10.36-4.83c3.97-1.38,7.42-2.25,10.7-2.41c3.28-0.18,4.83,0.52,4.83,2.07
				c0,2.59-0.34,7.6-1.04,15.2c-0.52,7.42-1.21,15.02-2.07,23.14c1.55-4.32,3.62-9.15,6.21-14.16c2.76-5.01,5.87-9.84,9.33-14.16
				s7.42-7.94,11.74-10.7c4.32-2.94,9.15-4.49,14.5-4.49c4.14,0,7.42,1.21,10.01,3.8c2.76,2.59,5.01,5.35,6.56,8.63
				c1.55,3.28,2.76,6.39,3.46,9.67C1123.53,184.69,1123.88,186.93,1123.88,188.32z M1179.48,276.37c2.07,0,4.83-3.62,8.29-11.05
				s6.73-16.23,9.67-26.59c3.28-10.36,5.7-21.07,7.6-32.11c2.07-11.05,2.59-20.37,1.73-27.97c-0.52-2.59-1.21-4.66-2.07-6.21
				c-0.69-1.55-1.55-3.28-2.76-5.18c1.38-1.9,3.11-3.28,5.18-4.14c2.07-1.21,3.97-1.9,5.87-2.41c2.25-0.69,4.66-1.21,6.91-1.38
				c5.53-0.18,9.49,0.69,12.08,2.76c1.38,1.38,2.07,4.66,2.07,9.67s-0.52,11.05-1.73,17.96c-0.86,6.73-2.25,13.81-4.14,21.41
				c-1.55,7.42-3.46,14.16-5.53,20.37c-2.07,6.05-4.66,12.6-7.6,19.68c-2.94,6.91-6.05,13.64-9.33,20.03
				c-3.28,6.21-6.39,11.57-9.67,16.23c-3.28,4.32-6.05,7.08-8.29,7.94c-4.83,1.9-9.67,2.76-14.5,2.76c-4.66,0-7.42-0.52-8.63-1.73
				c-0.52-0.52-1.55-2.07-3.11-4.83c-1.55-2.76-3.46-6.39-5.53-10.7c-1.9-4.32-3.97-9.49-6.21-15.2c-2.07-6.05-3.97-12.26-5.53-19
				c-1.55-6.73-2.76-13.99-3.46-21.75c-0.69-7.77-1.55-15.36-2.41-22.79c-0.69-7.6-1.73-14.68-3.11-21.07
				c-1.38-6.39-3.46-11.74-6.21-15.88l16.23-6.56c1.38-0.69,2.94-1.21,4.83-1.73c1.9-0.69,3.62-0.86,5.53-0.69
				c1.9,0.18,3.46,1.21,4.83,2.76c1.55,1.38,2.59,3.97,3.11,7.6c0.52,4.14,0.86,9.15,1.04,14.85c0.52,5.7,0.86,11.74,1.04,17.96
				c0.52,6.21,0.86,12.43,1.38,18.65c0.52,6.05,0.86,11.4,1.38,16.23c0.52,5.01,1.04,10.19,1.73,15.2c0.86,5.01,1.9,9.49,2.76,13.47
				c1.21,3.97,2.25,7.08,3.11,9.67C1177.23,275.16,1178.44,276.37,1179.48,276.37z M1254.41,172.08c0-1.38,1.9-2.94,5.53-4.49
				c3.62-1.55,7.77-2.94,12.08-3.8c4.66-1.21,8.81-1.73,12.43-1.73c3.97-0.18,5.87,0.52,5.87,2.41c0,3.46-0.17,8.46-0.69,14.85
				c-0.52,6.21-1.04,12.95-1.73,20.03c-0.69,6.91-1.38,13.99-2.07,21.07c-0.69,6.91-1.21,12.78-1.38,17.61
				c-0.52,5.01-0.86,10.53-1.38,16.57c-0.52,5.01-0.86,10.7-1.04,16.92c-0.18,6.21-0.18,12.6,0,19c0,1.21-1.21,2.25-3.46,3.46
				c-2.25,1.21-4.83,1.9-7.6,2.41c-2.76,0.69-5.35,1.04-7.94,1.04c-2.59,0-3.97-0.52-4.14-1.38c-0.52-0.86-0.86-2.59-1.38-4.83
				s-0.86-5.53-1.38-9.67c-0.52-4.32-0.86-9.84-1.04-16.57c-0.18-6.91-0.18-15.2,0.34-24.87c0.86-19.16,1.04-33.84,0.34-44.2
				C1255.1,185.38,1254.76,177.44,1254.41,172.08z M1278.58,103.36c4.66,0,8.98,1.38,13.13,4.14c4.14,2.76,6.21,6.39,6.21,11.05
				c0,3.46-0.86,6.73-2.76,10.01c-1.55,3.28-3.62,6.05-6.21,8.63c-2.59,2.59-5.35,4.66-8.63,6.21c-3.28,1.38-6.21,2.07-8.98,2.07
				c-3.62,0-6.73-0.52-8.98-1.73c-2.25-1.38-4.14-2.94-5.53-4.49c-1.21-1.9-1.9-3.8-2.41-5.87c-0.52-2.07-0.69-3.97-0.69-5.87
				c0-2.25,0.34-4.83,1.04-7.6c0.69-2.94,1.9-5.7,3.8-7.94c1.9-2.59,4.32-4.66,7.6-6.21
				C1269.43,104.23,1273.58,103.36,1278.58,103.36z M1269.95,135.48c1.38,0,2.94-0.52,4.49-1.38c1.9-1.21,3.46-2.41,4.83-3.8
				c1.55-1.38,2.94-2.94,3.8-4.49c1.21-1.55,1.73-2.94,1.73-4.14c0-1.9-0.86-2.76-2.76-2.76c-1.21,0-2.59,0.52-4.49,1.38
				c-1.55,0.86-3.28,2.07-4.83,3.46c-1.55,1.21-2.94,2.59-4.14,4.14c-0.86,1.38-1.38,2.76-1.38,4.14
				C1267.19,134.28,1268.23,135.48,1269.95,135.48z M1413.95,276.72c0.52,1.55,1.21,3.11,2.07,4.49c0.69,1.21,1.55,2.25,2.76,3.46
				c1.38,0.86,2.94,1.55,4.83,1.73c-1.55,3.28-3.28,5.35-4.83,6.56c-0.86,0.69-1.73,1.21-2.42,1.38c-2.07,0.69-5.18,1.04-9.33,1.04
				c-4.14,0-8.12-1.21-12.08-3.8c-1.38-1.21-2.59-2.94-3.8-5.18c-1.21-1.9-2.25-4.32-3.11-7.6c-0.69-3.46-1.21-7.77-1.73-13.13
				c-3.28,6.91-6.91,12.43-11.05,16.57c-3.97,3.97-7.77,6.73-11.74,8.63c-4.32,2.59-8.81,3.97-13.47,4.49
				c-5.7,0.52-11.22-0.52-16.57-2.76c-5.01-2.59-9.49-6.21-13.13-11.05c-3.46-5.01-6.05-11.22-7.94-18.3s-2.41-15.2-1.73-24.17
				c0.69-9.49,2.59-17.79,5.53-25.21c2.94-7.42,6.56-13.99,10.7-19.68c4.14-5.7,8.46-10.53,13.13-14.5
				c4.66-4.14,8.98-7.42,13.13-10.01c4.32-2.76,8.12-4.66,11.05-5.87c3.28-1.38,5.35-2.25,6.21-2.41c2.59-0.69,4.66-0.86,6.56-0.69
				c1.9,0.17,3.46,1.21,4.83,3.11c0.52,0.69,1.04,1.55,1.73,2.41c0.52,0.86,1.04,2.25,1.73,3.8c0.69,1.38,1.21,2.94,1.73,4.83
				c-5.53,2.59-10.7,5.35-15.54,8.63c-4.83,2.94-9.33,6.73-13.47,11.05c-3.97,4.32-7.42,9.67-10.36,15.88
				c-2.94,6.21-5.35,13.81-6.91,22.79c-2.25,11.22-1.73,20.37,1.73,27.28c3.62,6.91,8.63,9.84,14.85,8.63
				c3.62-1.21,7.25-3.28,10.7-6.56c2.94-2.76,6.05-6.91,9.33-12.43c3.46-5.53,6.73-13.13,9.67-22.79
				c1.21-13.81,2.07-24.69,2.76-32.46c0.86-8.12,1.73-14.16,2.41-18.3c0.86-4.83,1.55-8.12,2.07-9.67c0.69-1.21,2.07-2.25,4.14-3.11
				c2.07-1.21,4.32-2.07,6.91-2.76c2.59-0.69,4.83-1.04,6.91-1.04c2.07-0.18,3.46-0.18,4.14,0c0.52,0.18,0.69,3.11,0.69,8.63
				c0,5.35-0.18,12.08-0.69,20.37c-0.17,8.12-0.52,16.92-1.04,26.59c-0.52,9.49-0.86,18.48-1.38,26.94
				c-0.17,8.46-0.52,16.06-0.69,22.44C1413.26,271.19,1413.6,275.16,1413.95,276.72z"/>
		</g>
	</g>
</g>
<g id="Calque_1">
</g>
</svg>
