<?xml version="1.0" encoding="utf-8"?>
<!-- Generator: Adobe Illustrator 25.1.0, SVG Export Plug-In . SVG Version: 6.00 Build 0)  -->
<svg version="1.1" id="Calque_1" xmlns="http://www.w3.org/2000/svg" xmlns:xlink="http://www.w3.org/1999/xlink" x="0px" y="0px"
	 viewBox="0 0 1500 1000" style="enable-background:new 0 0 1500 1000;" xml:space="preserve">
<style type="text/css">
	.st0{fill:#1D1D1B;}
	.st1{fill:none;stroke:#1D1D1B;stroke-width:8;stroke-miterlimit:10;}
	.st2{font-family:'ArialMT';}
	.st3{font-size:142.9028px;}
</style>
<g>
	<path class="st0" d="M1490,10v980H10V10H1490 M1500,0H0v1000h1500V0L1500,0z"/>
</g>
<path class="st0" d="M414.18,642.78h-40.35l-13.45,40.35h-9.25l32.78-100.87h19.33l33.62,100.87h-10.09L414.18,642.78z
	 M410.82,634.37l-15.97-48.76h-2.52l-15.97,48.76H410.82z"/>
<path class="st0" d="M451.17,582.25h31.94c24.38,0,38.67,5.88,38.67,28.58s-6.72,21.86-17.65,23.54v3.36h11.77
	c5.04,0,6.72,1.68,6.72,6.72v38.67h-9.25v-41.19h-52.96v41.19h-9.25V582.25z M483.11,633.53c18.49,0,28.58-1.68,28.58-21.02
	c0-19.33-10.09-21.86-28.58-21.86h-22.7v42.87H483.11z"/>
<path class="st0" d="M586.5,581.41c23.17-1.41,43.1,16.23,44.51,39.4c0.02,0.32,0.03,0.63,0.05,0.95h-9.25
	c-2.52-21.02-14.29-32.78-35.31-32.78s-36.99,18.49-36.99,43.71s11.77,43.71,36.99,43.71c18.05,1.4,33.82-12.1,35.22-30.16
	c0.05-0.59,0.08-1.19,0.09-1.79h9.25c-0.89,23.2-20.41,41.28-43.6,40.4c-0.32-0.01-0.63-0.03-0.95-0.05
	c-29.42,0-46.23-22.7-46.23-52.12S557.08,581.41,586.5,581.41z"/>
<path class="st0" d="M728.56,582.25v100.87h-9.25v-45.39h-61.36v45.39h-9.25V582.25h9.25v47.07h61.36v-47.07H728.56z"/>
<path class="st0" d="M779,590.66v84.9h22.7v7.57h-54.64v-7.57h22.7v-84.9h-22.7v-8.41h54.64v8.41H779z"/>
<path class="st0" d="M897.53,590.66h-35.31v92.47h-9.25v-92.47h-35.31v-8.41h79.86V590.66z"/>
<path class="st0" d="M912.66,582.25h60.52v8.41H921.9v37.83h43.71v8.41H921.9v38.67h51.28v7.57h-60.52V582.25z"/>
<path class="st0" d="M1029.5,581.41c23.17-1.41,43.1,16.23,44.51,39.4c0.02,0.32,0.03,0.63,0.05,0.95h-9.25
	c-2.52-21.02-14.29-32.78-35.31-32.78c-21.02,0-36.99,18.49-36.99,43.71s11.77,43.71,36.99,43.71c18.05,1.4,33.82-12.1,35.22-30.16
	c0.05-0.59,0.08-1.19,0.09-1.79h9.25c-0.89,23.2-20.41,41.28-43.6,40.4c-0.32-0.01-0.63-0.03-0.95-0.05
	c-29.42,0-46.23-22.7-46.23-52.12S1000.08,581.41,1029.5,581.41z"/>
<path class="st0" d="M1155.59,590.66h-35.31v92.47h-9.25v-92.47h-35.31v-8.41h79.86V590.66z"/>
<path class="st0" d="M1170.72,582.25h9.25v63.89c0,20.17,8.41,30.26,29.42,30.26s29.42-10.09,29.42-30.26v-63.89h9.25v63.89
	c0,25.22-11.77,38.67-38.67,38.67s-38.67-13.45-38.67-38.67V582.25z"/>
<path class="st0" d="M1267.39,582.25h31.94c24.38,0,37.83,5.88,37.83,28.58s-6.72,21.86-16.81,23.54v3.36h10.93
	c5.88,0,7.57,1.68,7.57,6.72v38.67h-9.25v-41.19h-52.96v41.19h-9.25L1267.39,582.25z M1299.34,633.53
	c17.65,0,28.58-1.68,28.58-21.02c0-19.33-10.93-21.86-28.58-21.86h-22.7v42.87H1299.34z"/>
<path class="st0" d="M1359.02,582.25h60.52v8.41h-51.28v37.83h43.71v8.41h-43.71v38.67h51.28v7.57h-60.52V582.25z"/>
<rect x="80.46" y="243.49" class="st1" width="233.69" height="233.69"/>
<text transform="matrix(1 0 0 1 157.793 412.4492)" class="st0 st2 st3">E</text>
<text transform="matrix(1 0 0 1 420.0625 412.4492)" class="st0 st2 st3">C</text>
<rect x="357.86" y="243.49" class="st1" width="233.69" height="233.69"/>
<rect x="80.46" y="520.05" class="st1" width="236.21" height="236.46"/>
<text transform="matrix(1 0 0 1 151.0664 690.6875)" class="st0 st2 st3">V</text>
</svg>
