<?xml version="1.0" encoding="utf-8"?>
<!-- Generator: Adobe Illustrator 25.1.0, SVG Export Plug-In . SVG Version: 6.00 Build 0)  -->
<svg version="1.1" xmlns="http://www.w3.org/2000/svg" xmlns:xlink="http://www.w3.org/1999/xlink" x="0px" y="0px"
	 viewBox="0 0 1500 1000" style="enable-background:new 0 0 1500 1000;" xml:space="preserve">
<style type="text/css">
	.st0{fill:#1D1D1B;}
	.st1{fill:none;}
	.st2{fill:#F9B233;}
</style>
<g id="Calque_2">
	<g>
		<path class="st0" d="M1490,10v980H10V10H1490 M1500,0H0v1000h1500V0L1500,0z"/>
	</g>
</g>
<g id="Calque_1">
	<g id="Calque_7">
		<line class="st1" x1="483.01" y1="365.77" x2="642.49" y2="912.56"/>
		<path d="M486.28,364.79c12.56,21.06,23.5,42.61,34.12,64.24c5.37,10.78,10.3,21.72,15.4,32.6c5.1,10.87,9.85,21.84,14.51,32.85
			c18.88,43.92,35.92,88.4,51.59,133.28c7.87,22.43,15.37,44.96,22.5,67.6c7.1,22.63,14.17,45.31,20.47,68.24
			c6.07,23.26,9.55,47.11,10.4,71.13c0.43,12.5-0.01,25.02-1.32,37.46c-0.68,6.39-1.57,12.83-2.89,19.4
			c-1.25,6.79-2.99,13.49-5.19,20.04l-6.55,1.91c-5.38-4.34-10.43-9.06-15.13-14.13c-4.55-4.82-8.87-9.78-12.87-14.79
			c-7.78-9.79-14.89-20.11-21.27-30.87c-12.2-20.71-22.07-42.71-29.46-65.58c-7.05-22.75-13.28-45.49-19.47-68.49
			s-11.94-45.95-17.38-69.08c-10.9-46.27-20.47-92.92-28.16-140.12c-1.96-11.78-3.59-23.66-5.41-35.51
			c-1.82-11.85-3.25-23.77-4.55-35.74c-2.71-23.93-5.03-47.97-5.78-72.49L486.28,364.79z"/>
		<line class="st1" x1="1017.02" y1="369.18" x2="835.79" y2="909.15"/>
		<path d="M1020.25,370.34c-1.73,24.45-5,48.38-8.67,72.18c-1.77,11.94-3.96,23.73-5.98,35.55c-2.02,11.83-4.39,23.57-6.82,35.26
			c-9.58,46.86-21,93.08-33.73,138.87c-6.37,22.91-13.09,45.7-20.15,68.35c-7.07,22.75-14.22,45.29-22.18,67.65
			c-8.28,22.56-19.03,44.13-32.05,64.33C883.9,863,876.42,873,868.3,882.45c-4.23,4.85-8.62,9.64-13.47,14.26
			c-4.9,4.87-10.15,9.39-15.7,13.51l-6.46-2.16c-1.93-6.64-3.39-13.4-4.37-20.24c-1.07-6.62-1.68-13.08-2.12-19.49
			c-0.81-12.48-0.76-25.01,0.16-37.49c1.81-23.97,6.25-47.66,13.24-70.65c7.14-22.63,15.13-44.99,23.13-67.33
			c8.01-22.34,16.42-44.56,25.16-66.67c17.47-44.2,36.26-87.96,56.87-131.09c5.12-10.8,10.55-21.5,15.81-32.26
			c5.25-10.76,10.9-21.36,16.7-31.85c11.37-21.2,23.25-42.26,36.62-62.8L1020.25,370.34z"/>
		<path d="M1231.43,350.48l-2.27,7.92c-12.57,4.56-25.73,7.24-39.08,7.96c-6.18,0.42-12.37,0.51-18.56,0.3
			c-6.05-0.25-12.08-0.73-18.02-1.48c-11.7-1.53-23.25-4.03-34.53-7.48c-11.24-3.3-21.93-8.01-32.73-12.33
			c-43.17-17.91-85.2-38.42-125.88-61.42c-10.15-5.82-20.22-11.81-30.23-17.79c-10.01-5.98-19.74-12.65-29.57-19.04
			c-4.85-3.3-9.76-6.41-14.54-9.87l-14.31-10.21l-14.13-10.49c-4.71-3.46-9.42-6.82-13.94-10.74c-9.1-7.53-18.2-14.92-27-22.57
			c-8.8-7.64-17.31-15.92-25.75-24.04c-8.59-8.04-16.75-16.52-24.43-25.43c-5.6-6.35-11.1-12.69-16.42-19.2
			c-5.37,6.51-10.87,12.85-16.47,19.2c-7.71,8.9-15.88,17.38-24.5,25.41c-8.44,8.1-16.79,16.51-25.73,24.04
			c-8.94,7.53-17.97,15.04-27,22.57c-4.55,3.8-9.24,7.28-13.94,10.74l-14.1,10.49l-14.29,10.28c-4.78,3.46-9.69,6.57-14.54,9.87
			c-9.8,6.39-19.61,12.83-29.57,19.04c-9.96,6.21-20.09,11.96-30.25,17.79c-40.66,23.01-82.7,43.52-125.86,61.42
			c-10.83,4.32-21.52,9.1-32.76,12.33c-11.28,3.45-22.83,5.95-34.53,7.48c-5.94,0.75-11.92,1.23-18.02,1.48
			c-6.19,0.22-12.38,0.12-18.56-0.3c-13.35-0.72-26.51-3.41-39.08-7.96l-2.27-7.92c7.55-10.73,16.3-20.57,26.07-29.32
			c4.55-4.14,9.1-7.94,13.78-11.53c4.69-3.59,9.39-7.01,14.19-10.15c9.46-6.22,19.34-11.78,29.57-16.65
			c5.07-2.27,10.17-4.69,15.33-6.82l15.56-6.21c41.41-16.71,82.59-33.97,123.54-51.77c10.15-4.55,20.47-9.1,30.71-13.47l30.57-13.97
			c5.12-2.27,10.35-4.41,15.35-6.82l15.15-7.26l15.29-7.07l7.67-3.55c2.57-1.16,5.03-2.5,7.53-3.75
			c39.74-18.74,78.34-39.44,118.85-59.92l2.27-1.16c0.73,0.39,1.5,0.75,2.27,1.11c40.51,20.47,79.14,41.22,118.85,59.96
			c2.55,1.25,4.96,2.59,7.53,3.75l7.67,3.55l15.31,7.07l15.13,7.26c5.03,2.46,10.26,4.55,15.35,6.82l30.53,13.92
			c10.26,4.55,20.47,8.87,30.73,13.47c40.94,17.74,82.13,35.01,123.56,51.8l15.58,6.21c5.14,2.12,10.26,4.44,15.33,6.82
			c10.23,4.87,20.11,10.43,29.57,16.65c4.78,3.14,9.5,6.52,14.17,10.15c4.69,3.59,9.3,7.39,13.81,11.53
			C1215.16,329.94,1223.89,339.76,1231.43,350.48z"/>
		<path class="st2" d="M733.86,332.67c0.39,10.24,0.84,20.47,1.39,30.66c0.74,15.29,1.63,30.51,2.66,45.68l1.39,22.02
			c-21.04-0.36-42.04-0.61-63.08-0.57v-0.59c-1.81-22.18-5.61-44.15-11.37-65.65c-3.08-10.79-6.83-21.37-11.24-31.69
			c-1.16-2.57-2.27-5.16-3.43-7.71l-0.86-1.89c-0.23-0.58-0.52-1.14-0.86-1.66c-0.55-0.8-1.21-1.62-1.84-2.46
			c-1.96-2.41-4.55-5.3-7.05-8.99l0.64,0.36c2,1.05,4.03,2.09,6.1,3c4.07,1.89,8.21,3.59,12.37,5.1c8.28,3.13,16.76,5.71,25.39,7.73
			C700.4,329.84,717.08,332.07,733.86,332.67z"/>
		<path class="st2" d="M832.77,316.89c-8.62,16.93-14.81,34.98-18.4,53.64c-4,20.59-5.53,41.58-4.55,62.53
			c-20.32-0.79-40.63-1.38-60.92-1.77h-1.16l-1.3-22.75c-0.85-15.29-1.78-30.56-2.8-45.81c-0.68-9.96-1.44-19.93-2.27-29.89
			c15.99,0.28,31.97-0.84,47.77-3.34c8.83-1.48,17.55-3.53,26.11-6.14C821.24,321.63,827.09,319.47,832.77,316.89z"/>
		<path class="st2" d="M740,442.25l0.77,12.62c1.77,28.05,3.8,56.07,5.85,84.16c-6.07,0.14-12.1,0.45-18.2,0.89
			c-7.87,0.8-15.72,1.71-23.48,3.25c-7.82,1.47-15.54,3.4-23.13,5.78c-5.88,1.85-11.65,4.06-17.27,6.62
			c2.73-8.67,4.95-17.5,6.64-26.43c2.07-10.88,3.59-21.86,4.55-32.89c1.7-18.65,2.03-37.4,0.98-56.09
			C697.9,441.02,718.92,441.7,740,442.25z"/>
		<path class="st2" d="M839.18,553.32c-1.34-0.61-2.71-1.25-4.07-1.84c-3.84-1.41-7.69-2.73-11.62-3.96
			c-7.77-2.28-15.68-4.04-23.68-5.28c-15.37-2.44-30.91-3.57-46.47-3.37c-1.27-28.16-2.62-56.34-4.21-84.48l-0.68-11.92h0.27
			c20.58,0.5,41.18,0.8,61.8,0.91c1.55,19.16,4.8,38.15,9.71,56.73C824.96,518.38,831.3,536.18,839.18,553.32z"/>
		<path class="st0" d="M839.13,307.4c-17.72-2.27-34.42-3.14-51.23-4.55s-32.91-2.27-49.36-3.43h-0.73l-4.98-0.3
			c-15.08-0.98-30.16-1.64-45.49-1.62c-8.48,0-17.06,0.27-25.73,0.71c-4.32,0.27-8.67,0.59-13.03,1c-2.27,0.27-4.39,0.45-6.62,0.75
			l-3.34,0.48l-1.64,0.25c-0.76,0-1.52,0.05-2.27,0.16c-0.83,0.2-1.61,0.58-2.27,1.11c0.16,4.55-0.23,10.83,0.57,17.86
			c0.18,1.75,0.41,3.53,0.68,5.25c0.16,0.75,0.24,1.51,0.25,2.27l0.16,2.02c0.18,2.71,0.45,5.37,0.71,8.03
			c1.21,10.58,1.73,21.29,2.87,31.85l4.71,61.42l0.11,1.8c0.16,1.96,0.27,3.91,0.41,5.87c1.32,19.2,2.87,38.44,4.8,57.8
			c2.14,21.34,4.55,42.83,8.94,64.69l0,0l3.3,3.18c7.8,2.12,15.76,3.64,23.79,4.55c7.85,0.98,15.6,1.52,23.34,1.84
			s15.42,0.3,23.09,0.14c6.23-0.14,12.47-0.52,18.68-0.82l4.25-0.2h1.68c14.69-0.84,29.37-2,43.99-3.16
			c15.22-1.18,30.3-2.66,46.06-3.62l2.78-0.82l0.8-2.87c-1.41-21.47-4.14-42.29-6.46-62.99c-2-17.67-3.82-35.19-5-52.64
			c-0.25-2.96-0.41-5.91-0.59-8.87v-0.3c-1.19-20.27-1.29-40.59-0.27-60.87c1.02-20.47,3.5-40.94,6.48-62.01 M664.62,555.48
			c2.73-8.67,4.95-17.5,6.64-26.43c2.07-10.88,3.59-21.86,4.55-32.89c1.7-18.65,2.03-37.4,0.98-56.09
			c21.04,0.96,42.06,1.64,63.15,2.27l0.77,12.62c1.77,28.05,3.8,56.07,5.85,84.16c-6.07,0.14-12.1,0.45-18.2,0.89
			c-7.87,0.8-15.72,1.71-23.47,3.25c-7.82,1.47-15.54,3.4-23.13,5.78c-5.88,1.85-11.65,4.06-17.27,6.62 M639.46,309.93l0.64,0.36
			c2,1.05,4.03,2.09,6.1,3c4.07,1.89,8.21,3.59,12.37,5.1c8.32,3.1,16.83,5.66,25.48,7.64c16.38,3.82,33.08,6.04,49.88,6.64
			c0.39,10.24,0.84,20.47,1.39,30.66c0.7,15.29,1.56,30.51,2.59,45.68l1.39,22.02c-21.04-0.36-42.04-0.61-63.08-0.57v-0.59
			c-1.81-22.18-5.61-44.15-11.37-65.65c-3.08-10.79-6.83-21.37-11.24-31.69c-1.16-2.57-2.27-5.16-3.43-7.71l-0.86-1.89
			c-0.23-0.58-0.52-1.14-0.86-1.66c-0.55-0.8-1.21-1.62-1.84-2.46c-1.96-2.41-4.55-5.3-7.05-8.99 M839.27,553.23
			c-1.34-0.61-2.71-1.25-4.07-1.84c-3.84-1.41-7.69-2.73-11.62-3.96c-7.77-2.28-15.68-4.04-23.68-5.28
			c-15.37-2.44-30.91-3.57-46.47-3.37c-1.27-28.16-2.62-56.34-4.21-84.48l-0.68-11.92h0.27c20.58,0.5,41.18,0.8,61.8,0.91
			c1.55,19.16,4.8,38.15,9.71,56.73C825.05,518.28,831.39,536.09,839.27,553.23 M832.77,316.89c-8.62,16.93-14.81,34.98-18.4,53.64
			c-4,20.59-5.53,41.58-4.55,62.53c-20.32-0.79-40.63-1.38-60.92-1.77h-1.16l-1.3-22.75c-0.85-15.29-1.78-30.56-2.8-45.81
			c-0.68-9.96-1.44-19.93-2.27-29.89c15.99,0.28,31.97-0.84,47.77-3.34c8.83-1.48,17.55-3.53,26.11-6.14
			c5.97-1.74,11.8-3.93,17.45-6.53"/>
		<path d="M505.46,248.6c-3.89-1.83-7.5-4.21-10.71-7.07c-3.79-3.24-7.38-6.71-10.74-10.4c-7.46-8.4-14.16-17.45-20.02-27.05
			c-6.31-9.94-11.92-20.3-16.81-31c-2.41-5.35-4.55-10.78-6.48-16.31c-1.97-5.47-3.49-11.09-4.55-16.81l-0.14-0.82l0.41-0.68
			c3.93-6.28,8.55-12.11,13.78-17.36c5.04-5.13,10.42-9.92,16.1-14.33c5.64-4.45,11.63-8.42,17.92-11.87
			c6.5-3.68,13.47-6.45,20.72-8.23l0.96-0.2l0.61,0.41c9.36,6.62,18.21,13.94,26.48,21.88c8.23,7.76,15.92,15.92,23.48,24.25
			c3.78,4.16,7.37,8.46,10.96,12.74c3.59,4.28,7.19,8.6,10.28,13.28c3.2,4.72,5.9,9.76,8.08,15.04c2.43,5.68,3.96,11.71,4.55,17.86
			l0.11,1.43l-0.39,0.25C561.94,212.04,533.64,230.38,505.46,248.6z M505.94,246.32c27.66-18.33,55.21-36.55,82.89-54.59l-0.25,1.66
			c-5.87-1.94-11.4-4.78-16.4-8.42c-4.66-3.3-8.97-7.05-12.87-11.21c-3.87-4.07-7.17-8.6-10.65-13.01s-6.82-8.92-9.99-13.51
			c-6.51-9.1-12.67-18.54-18.4-28.3c-5.92-9.81-11.08-20.06-15.45-30.66l1.57,0.2c-3.72,6.49-8.31,12.44-13.65,17.67
			c-5.02,5.1-10.46,9.78-16.26,13.97c-5.79,4.28-11.87,8.15-18.2,11.58c-6.48,3.61-13.35,6.47-20.47,8.53l0.27-1.5
			c4.44,3.12,8.67,6.53,12.65,10.21c3.84,3.5,7.35,7.07,10.65,10.74c6.45,7.18,12.3,14.89,17.47,23.04
			c5.52,8.58,10.29,17.62,14.24,27.02c2.14,5.19,4.28,10.62,6.39,16.65c2.12,6.03,4.32,12.42,6.46,19.97L505.94,246.32z"/>
	</g>
</g>
</svg>
