<svg xmlns="http://www.w3.org/2000/svg" viewBox="0 0 100 100"><defs><style>.cls-1{fill:#1d1d1b;}.cls-2{fill:#fff;}</style></defs><g id="Calque_2" data-name="Calque 2"><circle class="cls-1" cx="50" cy="50" r="50"/></g><g id="Calque_1" data-name="Calque 1"><path class="cls-2" d="M18.6,26.9a14.6,14.6,0,0,0-3.8,2.7,9.7,9.7,0,0,0-2.2,3.8A15.8,15.8,0,0,0,13,42c1.7,5.8,5,11.1,8.4,16.2,1.8,2.6,3.7,5,5.6,7.3s2,2.4,3.1,3.5a41.1,41.1,0,0,0,3.1,2.9l.6.5s.1,0-.1-.1a2.3,2.3,0,0,0-1.1-.1H32a1.3,1.3,0,0,0-.8.3,2.7,2.7,0,0,0-.8.7l-.4.6a2.2,2.2,0,0,0-.3,1.3V73a40,40,0,0,1,0-4.9,66.1,66.1,0,0,1,.8-9.9,47.1,47.1,0,0,1,7.3-19.1A32.5,32.5,0,0,1,45,31.6a32.9,32.9,0,0,1,9.3-4.8,38.7,38.7,0,0,1,10.1-1.6,47.9,47.9,0,0,1,10,1.1,38,38,0,0,1,9.2,3.5,35.4,35.4,0,0,1,4.1,2.6,18.8,18.8,0,0,1,3.5,3.4,28.5,28.5,0,0,0-8.4-4.1,47.3,47.3,0,0,0-9.1-1.8,38.7,38.7,0,0,0-9,.2,33.5,33.5,0,0,0-8.4,2.2A27.6,27.6,0,0,0,43.4,43a43.7,43.7,0,0,0-5.9,16.3c-.5,3-.8,6-1,9s-.1,3.1-.1,4.6v2a4.1,4.1,0,0,1-.3,1.9l-.5.8-.9.7-1,.4H33c-.3.1-.4,0-.6,0h-1L30.2,78l-1.3-1a41.9,41.9,0,0,1-3.6-3.8c-1-1.3-2.1-2.6-3-3.9s-3.7-5.4-5.4-8.2l-2.3-4.3c-.7-1.5-1.4-3-2-4.5a44.2,44.2,0,0,1-2.8-9.6,27.5,27.5,0,0,1-.2-5,12.4,12.4,0,0,1,1.3-5,10.4,10.4,0,0,1,3.3-3.9A15.4,15.4,0,0,1,18.6,26.9Z" transform="translate(0)"/><path class="cls-2" d="M46.4,54.8c-.2.4,0,.7.1,1a1.9,1.9,0,0,0,.7.8,4,4,0,0,0,1.8,1,9.4,9.4,0,0,0,4.1.1c1.3-.1,2.9-.5,4.3-.7l4.5-.8,8.9-1.4,9-1.1,3.8-.4-1.2,3.6A29.1,29.1,0,0,1,75.8,68a35.2,35.2,0,0,1-10.3,7.3,32.3,32.3,0,0,1-5.9,2.2,26.6,26.6,0,0,1-6.3.9,13.6,13.6,0,0,1-6.2-1.6,7.8,7.8,0,0,1-2.4-2,4.1,4.1,0,0,1-.7-1.5,1.9,1.9,0,0,1-.1-.8,1.5,1.5,0,0,1,.5-.6,1.1,1.1,0,0,0-.1,1.3,4.8,4.8,0,0,0,.9,1.1,7.5,7.5,0,0,0,2.5,1.3,12.6,12.6,0,0,0,5.5.5,27.6,27.6,0,0,0,5.4-1.6,40.9,40.9,0,0,0,5.1-2.6,34.7,34.7,0,0,0,8.6-7.1,27.7,27.7,0,0,0,5.4-9.4l2.6,3.2q-4.5.6-9,.9t-9,.6l-4.5.2c-1.6,0-3,.1-4.7,0a11.1,11.1,0,0,1-4.7-1.4,5.2,5.2,0,0,1-1.8-1.8,3.7,3.7,0,0,1-.5-1.1A1.7,1.7,0,0,1,46.4,54.8Z" transform="translate(0)"/></g></svg>