<?xml version="1.0" encoding="utf-8"?>
<!-- Generator: Adobe Illustrator 25.1.0, SVG Export Plug-In . SVG Version: 6.00 Build 0)  -->
<svg version="1.1" id="Calque_1" xmlns="http://www.w3.org/2000/svg" xmlns:xlink="http://www.w3.org/1999/xlink" x="0px" y="0px"
	 viewBox="0 0 1500 1000" style="enable-background:new 0 0 1500 1000;" xml:space="preserve">
<style type="text/css">
	.st0{fill:#101010;}
	.st1{fill:none;}
	.st2{font-family:'MyriadPro-Regular';}
	.st3{font-size:100px;}
	.st4{fill:#1D1D1B;}
</style>
<g>
	<g>
		<path class="st0" d="M189.78,377.34c21.76,0,37.79,4.3,47.83,13.15c10.28,8.85,15.54,20.33,15.54,34.44
			c0,4.78-0.72,10.04-1.91,16.02c-3.11,13.15-8.61,24.63-16.98,34.44c-8.37,9.81-18.41,17.22-30.61,22.72
			c-11.96,5.26-24.87,7.89-38.98,7.89c-22.24,0-38.74-4.3-49.27-13.15c-10.52-8.85-15.78-20.81-15.78-35.39
			c0-5.02,0.72-10.52,1.91-16.5c3.11-12.44,8.85-23.44,17.22-33c8.61-9.81,19.13-17.22,31.33-22.48
			C162.28,379.97,175.67,377.34,189.78,377.34z M189.07,398.62c-3.35,0-6.94,3.11-10.76,9.09c-3.59,5.98-8.13,17.22-13.15,33.72
			c-5.02,16.5-7.65,28.22-7.65,34.92c0,3.59,0.48,5.98,1.67,7.17s2.63,1.67,4.54,1.67c3.35,0.24,6.7-2.63,10.28-8.61
			c3.59-5.98,8.13-17.94,13.63-35.39c5.02-15.54,7.41-26.79,7.41-33.72c0-3.35-0.48-5.74-1.67-6.94
			C192.41,399.34,190.98,398.62,189.07,398.62z"/>
		<path class="st0" d="M396.17,471.09c-0.24,0.72-0.48,1.67-0.48,2.87s0.24,1.91,0.72,2.63c0.72,0.72,1.43,0.96,2.39,0.96
			c1.91,0,3.59-0.72,4.78-2.39c1.43-1.67,2.39-2.63,2.87-2.63c0.72,0,1.43,0.48,1.91,1.67c0.48,0.96,0.72,2.15,0.72,3.59
			c0.24,4.54-1.43,9.09-4.54,13.63c-3.11,4.3-7.89,7.89-14.11,10.76c-5.98,2.63-13.39,4.07-22,4.07c-10.52,0-18.89-2.39-25.11-7.17
			c-6.22-5.02-9.33-11.48-9.57-19.61c0-5.98,1.43-12.44,4.3-19.85l13.15-34.44c0.72-2.15,1.2-3.83,1.2-5.02
			c0-2.15-0.72-3.59-2.15-4.78c-1.2-1.2-2.87-1.91-4.78-1.91c-3.11,0-6.22,1.43-9.33,4.3c-3.11,2.63-5.5,7.17-7.41,13.39v-0.48
			l-15.07,48.55c-0.48,1.91-0.72,3.59-0.72,5.02c0,2.15,0.48,3.83,1.2,5.02s1.91,2.15,3.35,3.35c1.2,1.2,1.91,2.15,2.39,2.87
			c0.48,0.72,0.48,1.43,0.24,2.63c-0.72,2.15-2.39,3.59-4.78,4.54s-5.98,1.43-11,1.43h-54.53c-4.07,0-7.17-0.72-9.09-1.91
			c-1.91-1.43-2.63-3.35-1.91-5.5c0.72-1.91,2.39-3.59,5.02-5.02c2.39-1.2,4.3-2.87,5.98-4.54c1.67-1.67,2.87-4.54,4.07-8.37
			l36.35-119.58c0.48-1.43,0.72-2.63,0.72-3.59c0-1.67-0.48-3.11-1.43-4.3c-0.72-1.2-1.91-2.15-3.35-3.35
			c-1.67-1.2-2.87-2.39-3.59-3.35s-0.72-2.15-0.24-3.83c0.96-3.59,5.98-6.94,15.07-9.57c9.09-2.63,18.65-4.07,28.46-4.07
			c9.33,0,16.02,1.67,20.33,5.26c4.54,3.59,6.7,8.37,6.7,14.35c0,3.59-0.48,6.94-1.67,10.28L338.3,399.1
			c6.22-8.13,12.68-13.87,19.61-16.98c6.94-3.11,14.59-4.78,22.72-4.78c9.81,0,17.46,2.87,23.44,8.85
			c5.98,5.98,9.09,13.63,9.09,22.96c0,5.02-0.72,9.81-2.39,14.59L396.17,471.09z"/>
		<path class="st0" d="M647.28,471.09c-0.24,0.72-0.48,1.67-0.48,2.87s0.24,1.91,0.72,2.63c0.72,0.72,1.43,0.96,2.39,0.96
			c1.91,0,3.59-0.72,4.78-2.39c1.43-1.67,2.39-2.63,2.87-2.63c0.72,0,1.43,0.48,1.91,1.67c0.48,0.96,0.72,2.15,0.72,3.59
			c0.24,4.54-1.43,9.09-4.54,13.63c-3.11,4.3-7.89,7.89-14.11,10.76c-5.98,2.63-13.39,4.07-22,4.07c-10.52,0-18.89-2.39-25.11-7.17
			c-6.22-5.02-9.33-11.48-9.57-19.61c0-5.98,1.43-12.44,4.3-19.85l13.15-34.44c0.72-2.15,1.2-3.83,1.2-5.02
			c0-2.15-0.72-3.59-2.15-4.78c-1.2-1.2-2.87-1.91-4.78-1.91c-2.63,0-5.5,1.2-8.37,3.59c-2.87,2.39-5.5,6.22-7.65,11.24
			l-13.15,42.81c-0.24,0.72-0.48,1.67-0.48,2.87s0.24,1.91,0.72,2.63c0.72,0.72,1.43,0.96,2.39,0.96c1.91,0,3.59-0.72,4.78-2.39
			c1.43-1.67,2.39-2.63,2.87-2.63c0.72,0,1.43,0.48,1.91,1.67c0.48,0.96,0.72,2.15,0.72,3.59c0.24,4.54-1.43,9.09-4.54,13.63
			c-3.11,4.3-7.89,7.89-14.11,10.76c-5.98,2.63-13.39,4.07-22,4.07c-10.52,0-18.89-2.39-25.11-7.17
			c-6.22-5.02-9.33-11.48-9.57-19.61c0-5.98,1.43-12.44,4.3-19.85l13.15-34.44c0.72-2.15,1.2-3.83,1.2-5.02
			c0-2.15-0.72-3.59-2.15-4.78c-1.2-1.2-2.87-1.91-4.78-1.91c-2.63,0-5.5,1.2-8.37,3.59c-2.87,2.15-5.26,5.98-7.17,11l-15.78,51.18
			c-0.72,1.67-0.96,3.35-0.96,5.02c0,1.91,0.48,3.59,1.2,4.78s1.91,2.39,3.35,3.59c1.2,0.96,1.91,1.91,2.39,2.63
			c0.48,0.72,0.48,1.67,0.24,2.87c-0.72,2.15-2.15,3.59-4.54,4.54c-2.39,0.96-6.22,1.43-11.24,1.43h-54.53
			c-4.07,0-7.17-0.72-8.85-1.91c-1.91-1.43-2.63-3.35-2.15-5.5c0.72-1.91,2.39-3.59,5.02-5.02c2.39-1.2,4.3-2.87,5.98-4.54
			c1.67-1.67,2.87-4.54,4.07-8.37l21.28-69.12c0.24-0.72,0.48-1.91,0.48-3.35c0-1.67-0.48-3.11-1.2-4.07
			c-0.72-0.96-1.67-2.15-3.35-3.59c-1.67-1.2-2.63-2.39-3.35-3.35c-0.72-0.96-0.72-2.15-0.24-3.83c0.96-3.59,5.98-6.94,15.07-9.57
			c9.09-2.87,18.65-4.3,28.46-4.3c7.89,0,13.87,2.15,18.41,6.46c4.54,4.3,6.94,10.28,6.7,17.7c6.46-9.09,13.39-15.31,20.57-18.89
			c7.41-3.59,15.31-5.26,23.68-5.26c9.33,0,16.74,2.63,22.48,8.13c5.98,5.26,9.09,12.2,9.81,20.81c6.94-10.76,14.11-18.41,22-22.48
			c7.89-4.3,16.26-6.46,25.59-6.46c9.81,0,17.46,2.87,23.44,8.85c5.98,5.98,9.09,13.63,9.09,22.96c0,5.02-0.72,9.81-2.39,14.59
			L647.28,471.09z"/>
		<path class="st0" d="M795.08,377.34c6.94,0,12.68,2.87,16.74,8.61c4.3,5.5,6.46,13.15,6.46,22.96c0,8.37-1.43,17.46-4.54,27.26
			c-5.98,19.61-15.31,38.26-28.46,55.48c-12.91,17.46-27.98,31.33-44.72,41.85c-16.74,10.52-33.48,15.78-50.22,15.78
			c-8.37,0-15.54-1.43-21.52-4.3c-5.98-2.87-10.28-6.7-13.39-11.48s-4.78-9.81-4.78-15.31c0-2.39,0.48-5.02,1.2-7.89
			c1.43-4.54,3.83-7.89,7.17-10.28s7.41-3.59,11.96-3.59c7.41,0,13.39,2.39,17.94,7.41c4.78,5.02,7.89,11.96,9.09,20.81
			c10.28-0.48,19.61-4.78,28.22-13.15c-8.13-1.43-14.11-4.07-18.18-8.13c-3.83-4.07-6.46-10.52-7.89-19.13l-9.57-58.59
			c-0.48-3.11-1.2-5.02-2.15-6.22c-0.72-1.2-1.91-1.91-3.35-1.91c-1.2,0-2.39,0.48-4.07,1.67c-1.43,1.2-2.39,1.67-3.11,1.67
			c-1.2,0-1.91-1.43-1.91-4.07c0-2.15,0.48-4.54,1.2-7.17c2.87-9.09,8.13-16.74,16.02-22.96c7.89-6.46,16.98-9.57,27.26-9.57
			c10.28,0,17.7,3.11,22.48,9.09c5.02,5.98,8.13,15.31,9.57,27.98l7.17,52.61c0.48,4.07,1.91,5.98,4.3,5.98
			c2.87,0,6.22-2.63,10.04-7.65c3.83-5.26,7.65-12.68,11.24-22.24c-4.78-4.3-8.37-9.33-11-14.83c-2.63-5.5-3.83-11.48-3.83-17.94
			c0-5.02,0.72-9.33,1.91-13.39c1.91-6.46,4.78-11.24,8.85-14.35C785.28,379.01,789.82,377.34,795.08,377.34z"/>
		<path class="st0" d="M914.42,327.12c16.98,0,29.89,2.63,38.26,7.89c8.61,5.02,12.91,11.48,12.91,18.89
			c0,5.98-2.63,10.76-7.65,14.11c-5.02,3.11-11.48,4.78-19.61,4.78c-7.41,0-13.39-1.91-17.46-5.5c-4.07-3.59-6.22-8.13-6.22-13.63
			c0-3.35,0.96-6.94,3.11-10.52c-4.78,0-8.85,1.2-11.96,3.59c-3.11,2.15-5.74,6.22-7.41,11.72c-0.96,3.59-1.43,6.7-1.43,9.81
			c0,3.83,0.72,6.94,1.91,9.09c1.43,2.15,3.35,3.11,5.98,3.11h14.11c8.37,0,12.44,2.63,12.44,7.65c0,0.72-0.24,1.67-0.48,2.87
			c-0.96,3.59-2.87,6.22-5.98,7.89c-2.87,1.67-7.17,2.63-13.15,2.63h-7.17l-23.68,77.49c-0.48,1.91-0.72,3.59-0.72,5.02
			c0,2.15,0.48,3.83,1.2,5.02s1.91,2.15,3.35,3.35c1.2,1.2,1.91,2.15,2.39,2.87c0.48,0.72,0.48,1.43,0.24,2.63
			c-0.72,2.15-2.39,3.59-4.78,4.54c-2.39,0.96-5.98,1.43-11,1.43h-54.77c-4.07,0-7.17-0.72-9.09-1.91c-1.91-1.43-2.63-3.35-1.91-5.5
			c0.72-1.91,2.39-3.59,5.02-5.02c2.39-1.2,4.3-2.87,5.98-4.54c1.67-1.67,2.87-4.54,4.07-8.37l18.65-61.22
			c0.72-2.39,1.2-4.78,1.2-7.41c0-3.11-0.72-5.74-2.15-7.41c-1.2-1.91-3.35-4.07-5.98-6.22c-1.67-1.43-3.11-2.63-4.07-3.59
			c-0.72-1.2-1.2-2.39-1.2-3.83c-0.24-3.11,0.96-5.26,3.11-6.46c2.39-1.2,6.94-1.91,13.39-1.91h5.98c-1.2-4.07-1.67-7.89-1.67-11.96
			c0-4.07,0.72-8.13,2.15-12.44c3.11-8.13,9.57-15.07,19.37-20.57C879.74,329.99,894.81,327.12,914.42,327.12z"/>
		<path class="st0" d="M1008.88,377.34c21.76,0,37.79,4.3,47.83,13.15c10.28,8.85,15.55,20.33,15.55,34.44
			c0,4.78-0.72,10.04-1.91,16.02c-3.11,13.15-8.61,24.63-16.98,34.44c-8.37,9.81-18.41,17.22-30.61,22.72
			c-11.96,5.26-24.87,7.89-38.98,7.89c-22.24,0-38.74-4.3-49.27-13.15c-10.52-8.85-15.78-20.81-15.78-35.39
			c0-5.02,0.72-10.52,1.91-16.5c3.11-12.44,8.85-23.44,17.22-33c8.61-9.81,19.13-17.22,31.33-22.48
			C981.62,379.97,994.77,377.34,1008.88,377.34z M1008.17,398.62c-3.35,0-6.94,3.11-10.76,9.09c-3.59,5.98-8.13,17.22-13.15,33.72
			c-5.02,16.5-7.65,28.22-7.65,34.92c0,3.59,0.48,5.98,1.67,7.17c1.2,1.2,2.63,1.67,4.54,1.67c3.35,0.24,6.7-2.63,10.28-8.61
			c3.59-5.98,8.13-17.94,13.63-35.39c5.02-15.54,7.41-26.79,7.41-33.72c0-3.35-0.48-5.74-1.67-6.94
			C1011.51,399.34,1010.08,398.62,1008.17,398.62z"/>
		<path class="st0" d="M1166.01,377.34c21.76,0,37.79,4.3,47.83,13.15c10.28,8.85,15.54,20.33,15.54,34.44
			c0,4.78-0.72,10.04-1.91,16.02c-3.11,13.15-8.61,24.63-16.98,34.44c-8.37,9.81-18.41,17.22-30.61,22.72
			c-11.96,5.26-24.87,7.89-38.98,7.89c-22.24,0-38.74-4.3-49.27-13.15c-10.52-8.85-15.78-20.81-15.78-35.39
			c0-5.02,0.72-10.52,1.91-16.5c3.11-12.44,8.85-23.44,17.22-33c8.61-9.81,19.13-17.22,31.33-22.48
			C1138.74,379.97,1152.14,377.34,1166.01,377.34z M1165.29,398.62c-3.35,0-6.94,3.11-10.76,9.09c-3.59,5.98-8.13,17.22-13.15,33.72
			c-5.02,16.5-7.65,28.22-7.65,34.92c0,3.59,0.48,5.98,1.67,7.17s2.63,1.67,4.54,1.67c3.35,0.24,6.7-2.63,10.28-8.61
			c3.59-5.98,8.13-17.94,13.63-35.39c5.02-15.54,7.41-26.79,7.41-33.72c0-3.35-0.48-5.74-1.67-6.94
			C1168.64,399.34,1167.2,398.62,1165.29,398.62z"/>
		<path class="st0" d="M1364.51,469.65c-0.24,1.2-0.48,2.15-0.48,2.63c0,1.2,0.24,1.91,0.96,2.63c0.72,0.72,1.43,0.96,2.39,0.96
			c1.91,0,3.59-0.72,4.78-2.39c1.43-1.67,2.39-2.63,2.87-2.63c0.72,0,1.43,0.48,1.91,1.67c0.48,1.2,0.72,2.39,0.72,3.83
			c0.24,4.3-1.43,8.61-5.02,13.15c-3.35,4.54-7.89,8.13-13.63,11s-11.96,4.3-18.65,4.3c-7.89,0-14.83-1.43-20.81-4.54
			c-5.98-3.11-10.04-6.94-12.2-11.96c-4.3,5.5-9.33,9.81-14.83,12.44s-11.48,4.07-17.7,4.07c-7.41,0-14.11-1.91-20.57-5.5
			c-6.22-3.59-11.24-8.85-15.07-15.54c-3.59-6.94-5.5-14.59-5.5-23.2c0-14.59,2.63-28.22,8.13-40.9c5.5-12.91,13.39-23.2,23.2-31.09
			s21.05-11.96,33.72-11.96c6.94,0,12.68,0.72,17.46,2.39c5.02,1.67,9.33,4.07,13.39,7.17l8.13-26.79c0.48-1.43,0.72-2.63,0.72-3.59
			c0-1.67-0.48-3.11-1.43-4.3c-0.72-1.2-1.91-2.15-3.35-3.35c-1.67-1.2-2.87-2.39-3.59-3.35s-0.72-2.15-0.24-3.83
			c0.96-3.59,5.98-6.94,15.07-9.57c9.09-2.63,18.65-4.07,28.46-4.07c9.33,0,16.02,1.67,20.33,5.26c4.54,3.59,6.7,8.37,6.7,14.35
			c0,3.59-0.48,6.94-1.67,10.28L1364.51,469.65z M1324.57,402.21c-2.63-2.15-5.26-3.35-8.37-3.35c-4.54,0-9.09,3.35-13.63,10.28
			c-4.54,6.94-8.13,15.07-10.76,24.87c-2.63,9.81-4.07,18.41-3.83,26.31c0,8.85,2.87,13.15,8.61,13.15c2.15,0,3.83-0.72,5.26-2.39
			c1.43-1.67,2.87-4.54,4.07-8.37L1324.57,402.21z"/>
	</g>
	<rect x="119.57" y="535.77" class="st1" width="1260.87" height="210.87"/>
	<text transform="matrix(1 0 0 1 123.0101 676.7069)" class="st2 st3">Menus de restaurants en ligne</text>
</g>
<g>
	<path class="st4" d="M1490,10v980H10V10H1490 M1500,0H0v1000h1500V0L1500,0z"/>
</g>
</svg>
