<?xml version="1.0" encoding="utf-8"?>
<!-- Generator: Adobe Illustrator 25.1.0, SVG Export Plug-In . SVG Version: 6.00 Build 0)  -->
<svg version="1.1" id="Calque_1" xmlns="http://www.w3.org/2000/svg" xmlns:xlink="http://www.w3.org/1999/xlink" x="0px" y="0px"
	 viewBox="0 0 1500 1000" style="enable-background:new 0 0 1500 1000;" xml:space="preserve">
<style type="text/css">
	.st0{fill:#3AAA35;}
	.st1{fill:#FFFFFF;}
	.st2{fill:none;}
	.st3{font-family:'MyriadPro-Regular';}
	.st4{font-size:150px;}
</style>
<g>
	<path class="st0" d="M1490,10v980H10V10H1490 M1500,0H0v1000h1500V0L1500,0z"/>
</g>
<circle class="st0" cx="750" cy="363.17" r="266.3"/>
<path class="st1" d="M582.76,240.14c-7.47,3.68-14.31,8.53-20.24,14.38c-5.4,5.76-9.41,12.69-11.72,20.24
	c-3.54,15.17-2.81,31.03,2.13,45.8c9.05,30.89,26.63,59.12,44.74,86.28c9.59,13.85,19.71,26.63,29.83,38.88s10.65,12.78,16.51,18.64
	c5.23,5.43,10.74,10.58,16.51,15.45l3.2,2.66c0,0,0.53,0-0.53-0.53c-1.88-0.65-3.89-0.83-5.86-0.53h-3.2
	c-1.56,0.04-3.06,0.6-4.26,1.6c-1.65,0.95-3.1,2.22-4.26,3.73l-2.13,3.2c-1.24,2.09-1.79,4.51-1.6,6.92v-11.18
	c-0.53-8.69-0.53-17.41,0-26.1c0.1-17.66,1.52-35.28,4.26-52.73c5.35-36.35,18.63-71.08,38.88-101.73
	c10.56-15.29,23.5-28.77,38.35-39.95c15.04-11.11,31.76-19.74,49.53-25.57c17.48-5.21,35.56-8.07,53.79-8.52
	c17.91,0.08,35.76,2.04,53.26,5.86c17.07,4.06,33.54,10.33,49,18.64c7.59,4.11,14.88,8.74,21.84,13.85
	c6.97,5.2,13.24,11.29,18.64,18.11c-13.61-9.69-28.73-17.07-44.74-21.84c-15.8-4.78-32.04-7.99-48.47-9.59
	c-15.97-1.51-32.05-1.15-47.93,1.07c-15.36,1.95-30.4,5.89-44.74,11.72c-28.26,11.42-52.27,31.33-68.71,56.99
	c-16.17,26.55-26.85,56.07-31.42,86.82c-2.66,15.98-4.26,31.96-5.33,47.93c-1.07,15.98-0.53,16.51-0.53,24.5v10.65
	c0.28,3.45-0.27,6.92-1.6,10.12l-2.66,4.26l-4.79,3.73l-5.33,2.13h-3.73c-1.6,0.53-2.13,0-3.2,0h-5.33l-6.39-3.73l-6.92-5.33
	c-6.81-6.34-13.21-13.1-19.17-20.24c-5.33-6.92-11.18-13.85-15.98-20.77c-4.79-6.92-19.71-28.76-28.76-43.67l-12.25-22.9
	c-3.73-7.99-7.46-15.98-10.65-23.97c-6.89-16.42-11.89-33.58-14.91-51.13c-1.16-8.83-1.52-17.74-1.07-26.63
	c0.41-9.26,2.77-18.34,6.92-26.63c4.04-8.28,10.08-15.42,17.58-20.77C566.56,245.68,574.47,242.27,582.76,240.14z"/>
<path class="st1" d="M730.83,388.74c-1.07,2.13,0,3.73,0.53,5.33c0.81,1.75,2.11,3.22,3.73,4.26c2.68,2.58,5.98,4.42,9.59,5.33
	c7.15,1.78,14.61,1.96,21.84,0.53c6.92-0.53,15.45-2.66,22.9-3.73l23.97-4.26l47.4-7.46l47.93-5.86l20.24-2.13l-6.39,19.17
	c-7.14,22.09-19.15,42.29-35.15,59.12c-15.79,16.16-34.38,29.33-54.86,38.88c-10.07,4.92-20.59,8.84-31.42,11.72
	c-10.95,2.93-22.22,4.54-33.55,4.79c-11.53-0.17-22.85-3.09-33.02-8.52c-4.94-2.65-9.28-6.28-12.78-10.65
	c-1.77-2.38-3.04-5.1-3.73-7.99c-0.48-1.37-0.66-2.82-0.53-4.26c0.59-1.28,1.51-2.38,2.66-3.2c-1.67,1.94-1.89,4.75-0.53,6.92
	c1.3,2.18,2.91,4.15,4.79,5.86c3.96,3.13,8.48,5.48,13.32,6.92c9.45,3.04,19.45,3.95,29.29,2.66c9.85-1.85,19.49-4.71,28.76-8.52
	c9.37-3.98,18.44-8.6,27.16-13.85c17.21-10.05,32.67-22.82,45.8-37.82c12.79-14.63,22.57-31.65,28.76-50.07l13.85,17.04
	c-15.98,2.13-31.96,3.73-47.93,4.79c-15.98,1.07-31.96,2.13-47.93,3.2l-23.97,1.07c-8.52,0-15.98,0.53-25.03,0
	c-8.8-0.59-17.35-3.14-25.03-7.46c-3.94-2.35-7.23-5.65-9.59-9.59c-1.2-1.79-2.1-3.77-2.66-5.86
	C728.94,392.87,729.51,390.59,730.83,388.74z"/>
<rect x="108" y="585.74" class="st2" width="1288.07" height="317.39"/>
<text transform="matrix(1 0 0 1 302.5665 797.6862)" class="st3 st4">CV et Portfolio</text>
</svg>
