<?xml version="1.0" encoding="utf-8"?>
<!-- Generator: Adobe Illustrator 25.1.0, SVG Export Plug-In . SVG Version: 6.00 Build 0)  -->
<svg version="1.1" id="Calque_1" xmlns="http://www.w3.org/2000/svg" xmlns:xlink="http://www.w3.org/1999/xlink" x="0px" y="0px"
	 viewBox="0 0 1500 1000" style="enable-background:new 0 0 1500 1000;" xml:space="preserve">
<style type="text/css">
	.st0{fill:none;}
	.st1{font-family:'MyriadPro-Regular';}
	.st2{font-size:100px;}
	.st3{fill:#3345FF;}
</style>
<rect x="117.83" y="584.27" class="st0" width="1260.87" height="210.87"/>
<text transform="matrix(1 0 0 1 223.9782 725.2068)" class="st1 st2">Reservations et activitées</text>
<g>
	<path class="st3" d="M1490,10v980H10V10H1490 M1500,0H0v1000h1500V0L1500,0z"/>
</g>
<g id="Calque_2_1_">
	<g>
		<path class="st3" d="M268.32,492.55c-3.08-9.71-6.39-18.47-9.47-26.05c-2.84-7.58-5.45-13.97-7.58-19.42
			c-12.31,4.03-25.81,6.87-40.25,8.52c0,20.13,0.47,37.41,1.42,51.62c0.24,8.76,0.71,16.34,0.95,22.73
			c0.71,5.92,1.18,11.13,1.42,15.63c0.71,4.5,1.18,8.29,1.89,11.84c0.71,3.79,1.66,7.34,2.84,10.89
			c-6.39,4.74-12.55,8.29-18.47,10.42c-5.68,2.13-10.66,3.79-15.15,4.74c-5.45,1.18-10.18,1.66-14.21,0.95
			c-1.66-4.5-3.08-9.23-4.26-14.21c-1.18-4.74-2.13-11.37-2.84-19.89c-0.24-8.29-0.47-18.71-0.47-31.73
			c0-13.02,0.47-29.6,1.42-49.72c0.24-2.13,0.47-4.5,0.47-6.63s0.24-4.5,0.47-6.63c-2.84-0.24-5.92-0.71-9-0.95
			c-2.84-0.24-5.68-0.71-8.52-0.95c-1.89-4.97-3.08-9.47-3.79-13.26c-0.71-4.03-0.95-7.34-0.95-9.94c0-3.08,0.24-5.68,0.95-7.58
			c4.97,0.95,10.18,1.42,15.15,1.42h7.1c0.71-13.26,1.18-26.76,1.89-40.25c0.71-13.97,1.18-27.23,1.42-40.25
			c0.71-13.26,1.18-25.81,1.42-37.41c0.24-12.08,0.71-22.97,0.95-32.68c-9.47,6.39-17.76,14.44-24.63,24.63
			c-6.87,10.18-11.6,21.78-14.21,35.04c-4.03-0.71-7.58-2.6-10.42-5.68c-2.84-3.55-5.21-6.87-7.1-10.42
			c-2.13-4.03-4.03-8.76-5.68-13.73c-1.66-5.92-1.66-12.08,0-18c1.66-6.39,4.03-12.08,7.1-17.52c3.08-5.68,6.87-10.66,10.89-14.68
			c4.03-4.5,8.05-7.81,11.84-10.42c6.63-4.03,13.5-7.81,20.36-10.89c7.34-3.55,15.39-6.39,24.15-8.52
			c3.55-3.55,7.34-6.63,11.37-9.47c4.5-2.84,8.52-4.5,12.31-5.21c5.45-1.18,8.29,2.13,9,9.94c2.84-0.24,5.92-0.47,9-0.47
			c3.08-0.24,6.39-0.47,9.94-0.47c12.08,0,24.39,1.89,37.41,5.68c13.02,3.79,24.86,9.94,35.52,18.47
			c11.13,8.29,20.13,19.18,26.99,32.68c6.87,13.26,10.42,29.6,10.42,48.78c0,21.78-5.21,41.91-15.63,60.14
			c-10.18,18.23-24.63,33.39-43.57,45.46c2.13,5.68,4.97,12.79,8.52,21.31c3.55,8.52,6.87,18.23,10.42,28.89
			c4.97,13.26,10.42,25.81,16.1,37.41c5.92,11.37,12.08,21.31,18.47,29.83c6.39,8.52,13.02,15.39,19.89,20.36
			c6.87,5.45,13.97,8.52,20.84,9.47c-4.03,6.39-8.76,10.66-14.21,13.26c-5.45,2.6-10.66,4.03-16.1,4.74
			c-5.92,0.95-12.31,0.95-18.94,0c-9.23-1.89-17.05-6.39-23.68-13.26c-6.63-6.87-12.55-15.39-17.52-25.1
			c-4.74-9.71-9.23-20.13-13.26-31.25C274.95,513.39,271.4,502.74,268.32,492.55z M213.38,290.82c0,6.87-0.24,15.39-0.47,25.1
			s-0.71,20.36-0.95,31.73c0,11.37-0.24,23.44-0.47,35.99c-0.24,12.31-0.47,24.63-0.47,36.94c8.52-1.18,17.76-3.31,27.94-6.16
			c10.42-2.84,20.13-7.58,28.89-14.21s16.34-15.39,22.26-26.52c5.92-11.13,9-25.34,9-42.62c0-13.26-2.37-24.39-7.1-33.62
			c-4.5-9.47-10.18-17.05-17.52-22.73c-7.34-5.92-15.39-10.18-24.15-12.79c-8.52-2.84-17.05-4.26-25.57-4.26c-1.66,0-3.08,0-4.74,0
			c-1.66,0-3.31,0.24-5.21,0.47C213.86,268.32,213.38,279.22,213.38,290.82z M436.9,546.54c-22.02,0-39.07-7.34-51.14-22.26
			c-12.08-14.92-18-34.33-18-58.25c0-16.81,2.37-32.44,7.1-46.88c4.97-14.92,11.6-27.7,19.89-38.36
			c8.29-10.66,17.76-19.18,28.41-25.1c11.13-6.39,22.49-9.47,34.57-9.47c11.6,0,21.55,4.26,29.83,12.79
			c8.29,8.29,12.31,20.13,12.31,35.52c0,10.18-2.13,20.13-6.63,30.31c-4.5,9.71-10.18,18.71-17.52,26.52
			c-6.87,7.58-14.68,13.73-23.2,18.47c-8.52,4.74-16.81,7.1-24.63,7.1c-4.97,0-9.23-0.71-12.79-1.89c-3.55-1.18-6.63-3.08-9.47-5.68
			c0.95,18,4.97,30.54,11.84,37.88c6.87,6.87,15.86,10.42,26.99,10.42c7.58,0,14.21-1.66,19.89-4.74
			c5.92-3.08,11.13-6.87,15.15-10.89s7.34-8.29,9.94-12.31c2.6-4.5,4.26-7.81,5.21-9.94c0.95-1.89,2.6-2.84,4.74-2.84
			c2.6,0,3.79,1.89,3.79,5.68c0,3.55-1.18,8.76-3.79,16.1c-2.13,6.87-5.92,13.97-11.37,21.31c-5.45,6.87-12.31,13.02-20.84,18.47
			C458.92,543.94,448.74,546.54,436.9,546.54z M458.69,366.59c-1.89,0-5.45,2.13-10.89,6.16c-4.97,3.79-10.66,9.47-16.57,17.05
			c-5.68,7.58-11.13,16.81-16.1,27.47c-4.74,10.42-7.81,22.26-9,35.52c18.94-4.5,33.86-11.37,44.99-20.84s16.57-23.44,16.57-41.67
			c0-9.23-1.18-15.39-3.31-18.47C462,368.24,460.11,366.59,458.69,366.59z M605.49,451.35c6.87,2.6,13.5,4.97,19.89,7.1
			c6.39,2.13,11.84,4.97,16.57,8.05s8.52,6.87,11.37,11.37c2.84,4.03,4.26,9.23,4.26,15.63c0,7.58-1.66,14.68-5.21,21.31
			c-3.08,6.63-7.81,12.55-14.21,17.52c-6.39,4.97-13.97,9-23.2,11.84c-8.76,3.08-18.71,4.74-29.83,4.74
			c-12.31,0-22.26-1.18-29.83-3.79c-7.58-2.13-13.5-4.97-17.52-8.05c-4.03-3.08-6.87-6.39-8.05-9.47c-1.18-3.08-1.89-5.68-1.89-7.58
			c0-3.79,0.71-7.81,2.37-12.31c1.66-4.74,4.5-9.71,9-15.15c1.89-2.13,4.03-4.26,6.16-6.16c4.5-3.79,8.76-6.16,13.26-7.1
			c-0.71,7.34,0.24,13.26,2.37,18c2.6,4.5,5.68,7.81,9.47,10.42c4.03,2.6,8.52,4.26,13.26,5.21c4.97,0.95,9.71,1.42,14.21,1.42
			c4.5,0,8.76-0.71,13.26-1.89c4.74-1.18,9-2.84,12.79-4.74c3.79-2.13,6.87-4.5,9-7.1c2.6-2.84,3.79-5.92,3.79-9
			c0-3.55-1.42-6.39-4.26-8.52c-2.84-2.13-6.39-4.03-10.89-5.21c-4.03-1.66-8.76-2.6-13.73-3.31c-4.74-0.95-9.23-1.89-13.73-2.84
			c-4.5-0.95-10.42-2.13-18-3.79c-7.34-1.89-14.44-4.74-21.78-8.52c-6.87-3.79-13.02-8.76-18.47-15.15
			c-4.97-6.39-7.58-14.68-7.58-25.1c0-12.08,3.08-22.49,9-31.25c6.39-9.23,13.97-16.81,22.73-22.73
			c9.23-6.39,18.71-11.13,28.89-14.21c10.18-3.08,19.18-4.74,26.99-4.74c4.03,0,8.52,0.71,13.26,1.89
			c4.74,0.95,9.23,2.84,13.26,5.68c4.03,2.6,7.34,5.92,9.94,10.42c2.84,4.5,4.26,10.18,4.26,17.05c0,6.87-0.71,12.55-1.89,17.05
			c-0.95,4.03-2.6,7.34-4.74,9.94c-1.89,2.13-4.26,3.55-7.1,4.26c-2.84,0.71-6.16,0.95-9.94,0.95c-2.6,0-4.97-0.24-7.1-0.95
			c-1.89-0.71-4.03-1.18-6.16-1.89c-2.13-0.71-4.26-1.66-6.16-3.31c3.08-3.79,5.45-7.34,7.1-10.89c1.89-3.55,2.84-7.81,2.84-12.79
			c0-4.5-1.18-8.29-3.79-11.84c-2.13-3.55-5.92-5.21-11.37-5.21c-5.68,0-11.13,1.18-16.57,3.31c-4.97,2.13-9.71,5.21-13.73,9
			c-3.79,3.79-6.87,8.29-9.47,13.26c-2.13,4.74-3.31,9.94-3.31,15.63c0,8.52,3.08,16.57,9.47,24.15
			C581.34,439.52,591.52,445.91,605.49,451.35z M748.51,546.54c-22.02,0-39.07-7.34-51.14-22.26c-12.08-14.92-18-34.33-18-58.25
			c0-16.81,2.37-32.44,7.1-46.88c4.97-14.92,11.6-27.7,19.89-38.36c8.29-10.66,17.76-19.18,28.41-25.1
			c11.13-6.39,22.49-9.47,34.57-9.47c11.6,0,21.55,4.26,29.83,12.79c8.29,8.29,12.31,20.13,12.31,35.52
			c0,10.18-2.13,20.13-6.63,30.31c-4.5,9.71-10.18,18.71-17.52,26.52c-6.87,7.58-14.68,13.73-23.2,18.47
			c-8.52,4.74-16.81,7.1-24.63,7.1c-4.97,0-9.23-0.71-12.79-1.89c-3.55-1.18-6.63-3.08-9.47-5.68c0.95,18,4.97,30.54,11.84,37.88
			c6.87,6.87,15.86,10.42,26.99,10.42c7.58,0,14.21-1.66,19.89-4.74c5.92-3.08,11.13-6.87,15.15-10.89
			c4.03-4.03,7.34-8.29,9.94-12.31c2.6-4.5,4.26-7.81,5.21-9.94c0.95-1.89,2.6-2.84,4.74-2.84c2.6,0,3.79,1.89,3.79,5.68
			c0,3.55-1.18,8.76-3.79,16.1c-2.13,6.87-5.92,13.97-11.37,21.31c-5.45,6.87-12.31,13.02-20.84,18.47
			C770.53,543.94,760.35,546.54,748.51,546.54z M770.05,366.59c-1.89,0-5.45,2.13-10.89,6.16c-4.97,3.79-10.66,9.47-16.57,17.05
			c-5.68,7.58-11.13,16.81-16.1,27.47c-4.74,10.42-7.81,22.26-9,35.52c18.94-4.5,33.86-11.37,44.99-20.84
			c11.13-9.47,16.57-23.44,16.57-41.67c0-9.23-1.18-15.39-3.31-18.47C773.6,368.24,771.71,366.59,770.05,366.59z M970.37,395.95
			c0,4.5-1.18,9-3.79,13.73c-2.13,4.5-4.97,8.76-8.52,12.79s-7.34,7.81-11.84,10.89c-4.03,2.84-8.05,4.5-11.84,5.21
			c2.6-9.71,3.31-17.28,2.37-22.73c-0.95-5.45-2.6-9.23-4.74-11.84c-2.6-2.84-5.68-4.5-9.47-4.74c-5.68,0-11.13,3.31-16.57,9.94
			c-4.97,6.39-9.47,14.21-13.26,23.68c-3.79,9.23-6.87,19.18-9,29.83c-2.13,10.42-3.31,19.89-3.31,28.41
			c-0.24,5.92-0.24,11.84,0.47,17.52c0.24,4.74,0.71,9.71,1.42,14.68c0.95,4.97,2.13,9,3.79,11.84c-1.89,1.66-4.97,3.55-9.47,5.68
			c-4.03,2.13-8.52,3.55-13.26,4.26c-4.5,0.71-8.52-0.24-12.31-2.37c-3.55-2.13-5.45-6.87-5.68-14.21
			c-0.71-6.87-1.18-14.68-1.42-23.2c0-8.76,0-17.52,0-26.05c0.24-8.76,0.71-17.52,0.95-26.05c0.24-8.52,0.71-16.34,1.42-23.68
			c0.71-13.97,0.95-24.63,0.95-32.2c0-7.58-0.24-14.92-0.47-21.78c0-1.18,2.13-3.08,6.16-5.21c4.5-2.6,9.23-4.74,14.21-6.63
			c5.45-1.89,10.18-3.08,14.68-3.31c4.5-0.24,6.63,0.71,6.63,2.84c0,3.55-0.47,10.42-1.42,20.84c-0.71,10.18-1.66,20.6-2.84,31.73
			c2.13-5.92,4.97-12.55,8.52-19.42c3.79-6.87,8.05-13.5,12.79-19.42c4.74-5.92,10.18-10.89,16.1-14.68
			c5.92-4.03,12.55-6.16,19.89-6.16c5.68,0,10.18,1.66,13.73,5.21c3.79,3.55,6.87,7.34,9,11.84c2.13,4.5,3.79,8.76,4.74,13.26
			C969.89,390.98,970.37,394.05,970.37,395.95z M1046.61,516.71c2.84,0,6.63-4.97,11.37-15.15s9.23-22.26,13.26-36.46
			c4.5-14.21,7.81-28.89,10.42-44.04c2.84-15.15,3.55-27.94,2.37-38.36c-0.71-3.55-1.66-6.39-2.84-8.52
			c-0.95-2.13-2.13-4.5-3.79-7.1c1.89-2.6,4.26-4.5,7.1-5.68c2.84-1.66,5.45-2.6,8.05-3.31c3.08-0.95,6.39-1.66,9.47-1.89
			c7.58-0.24,13.02,0.95,16.57,3.79c1.89,1.89,2.84,6.39,2.84,13.26s-0.71,15.15-2.37,24.63c-1.18,9.23-3.08,18.94-5.68,29.36
			c-2.13,10.18-4.74,19.42-7.58,27.94c-2.84,8.29-6.39,17.28-10.42,26.99c-4.03,9.47-8.29,18.71-12.79,27.47
			c-4.5,8.52-8.76,15.86-13.26,22.26c-4.5,5.92-8.29,9.71-11.37,10.89c-6.63,2.6-13.26,3.79-19.89,3.79
			c-6.39,0-10.18-0.71-11.84-2.37c-0.71-0.71-2.13-2.84-4.26-6.63c-2.13-3.79-4.74-8.76-7.58-14.68c-2.6-5.92-5.45-13.02-8.52-20.84
			c-2.84-8.29-5.45-16.81-7.58-26.05c-2.13-9.23-3.79-19.18-4.74-29.83c-0.95-10.66-2.13-21.07-3.31-31.25
			c-0.95-10.42-2.37-20.13-4.26-28.89c-1.89-8.76-4.74-16.1-8.52-21.78l22.26-9c1.89-0.95,4.03-1.66,6.63-2.37
			c2.6-0.95,4.97-1.18,7.58-0.95c2.6,0.24,4.74,1.66,6.63,3.79c2.13,1.89,3.55,5.45,4.26,10.42c0.71,5.68,1.18,12.55,1.42,20.36
			c0.71,7.81,1.18,16.1,1.42,24.63c0.71,8.52,1.18,17.05,1.89,25.57c0.71,8.29,1.18,15.63,1.89,22.26
			c0.71,6.87,1.42,13.97,2.37,20.84c1.18,6.87,2.6,13.02,3.79,18.47c1.66,5.45,3.08,9.71,4.26,13.26
			C1043.53,515.05,1045.19,516.71,1046.61,516.71z M1149.37,373.69c0-1.89,2.6-4.03,7.58-6.16c4.97-2.13,10.66-4.03,16.57-5.21
			c6.39-1.66,12.08-2.37,17.05-2.37c5.45-0.24,8.05,0.71,8.05,3.31c0,4.74-0.24,11.6-0.95,20.36c-0.71,8.52-1.42,17.76-2.37,27.47
			c-0.95,9.47-1.89,19.18-2.84,28.89c-0.95,9.47-1.66,17.52-1.89,24.15c-0.71,6.87-1.18,14.44-1.89,22.73
			c-0.71,6.87-1.18,14.68-1.42,23.2c-0.24,8.52-0.24,17.28,0,26.05c0,1.66-1.66,3.08-4.74,4.74s-6.63,2.6-10.42,3.31
			c-3.79,0.95-7.34,1.42-10.89,1.42c-3.55,0-5.45-0.71-5.68-1.89c-0.71-1.18-1.18-3.55-1.89-6.63c-0.71-3.08-1.18-7.58-1.89-13.26
			c-0.71-5.92-1.18-13.5-1.42-22.73c-0.24-9.47-0.24-20.84,0.47-34.1c1.18-26.28,1.42-46.41,0.47-60.62
			C1150.32,391.92,1149.85,381.03,1149.37,373.69z M1182.52,279.45c6.39,0,12.31,1.89,18,5.68c5.68,3.79,8.52,8.76,8.52,15.15
			c0,4.74-1.18,9.23-3.79,13.73c-2.13,4.5-4.97,8.29-8.52,11.84c-3.55,3.55-7.34,6.39-11.84,8.52c-4.5,1.89-8.52,2.84-12.31,2.84
			c-4.97,0-9.23-0.71-12.31-2.37c-3.08-1.89-5.68-4.03-7.58-6.16c-1.66-2.6-2.6-5.21-3.31-8.05c-0.71-2.84-0.95-5.45-0.95-8.05
			c0-3.08,0.47-6.63,1.42-10.42c0.95-4.03,2.6-7.81,5.21-10.89c2.6-3.55,5.92-6.39,10.42-8.52
			C1169.97,280.64,1175.66,279.45,1182.52,279.45z M1170.68,323.49c1.89,0,4.03-0.71,6.16-1.89c2.6-1.66,4.74-3.31,6.63-5.21
			c2.13-1.89,4.03-4.03,5.21-6.16c1.66-2.13,2.37-4.03,2.37-5.68c0-2.6-1.18-3.79-3.79-3.79c-1.66,0-3.55,0.71-6.16,1.89
			c-2.13,1.18-4.5,2.84-6.63,4.74c-2.13,1.66-4.03,3.55-5.68,5.68c-1.18,1.89-1.89,3.79-1.89,5.68
			C1166.9,321.84,1168.32,323.49,1170.68,323.49z M1368.16,517.18c0.71,2.13,1.66,4.26,2.84,6.16c0.95,1.66,2.13,3.08,3.79,4.74
			c1.89,1.18,4.03,2.13,6.63,2.37c-2.13,4.5-4.5,7.34-6.63,9c-1.18,0.95-2.37,1.66-3.32,1.89c-2.84,0.95-7.1,1.42-12.79,1.42
			c-5.68,0-11.13-1.66-16.57-5.21c-1.89-1.66-3.55-4.03-5.21-7.1c-1.66-2.6-3.08-5.92-4.26-10.42c-0.95-4.74-1.66-10.66-2.37-18
			c-4.5,9.47-9.47,17.05-15.15,22.73c-5.45,5.45-10.66,9.23-16.1,11.84c-5.92,3.55-12.08,5.45-18.47,6.16
			c-7.81,0.71-15.39-0.71-22.73-3.79c-6.87-3.55-13.02-8.52-18-15.15c-4.74-6.87-8.29-15.39-10.89-25.1
			c-2.6-9.71-3.31-20.84-2.37-33.15c0.95-13.02,3.55-24.39,7.58-34.57c4.03-10.18,9-19.18,14.68-26.99
			c5.68-7.81,11.6-14.44,18-19.89c6.39-5.68,12.31-10.18,18-13.73c5.92-3.79,11.13-6.39,15.15-8.05c4.5-1.89,7.34-3.08,8.52-3.31
			c3.55-0.95,6.39-1.18,9-0.95s4.74,1.66,6.63,4.26c0.71,0.95,1.42,2.13,2.37,3.31c0.71,1.18,1.42,3.08,2.37,5.21
			c0.95,1.89,1.66,4.03,2.37,6.63c-7.58,3.55-14.68,7.34-21.31,11.84c-6.63,4.03-12.79,9.23-18.47,15.15
			c-5.45,5.92-10.18,13.26-14.21,21.78c-4.03,8.52-7.34,18.94-9.47,31.25c-3.08,15.39-2.37,27.94,2.37,37.41
			c4.97,9.47,11.84,13.5,20.36,11.84c4.97-1.66,9.94-4.5,14.68-9c4.03-3.79,8.29-9.47,12.79-17.05c4.74-7.58,9.23-18,13.26-31.25
			c1.66-18.94,2.84-33.86,3.79-44.51c1.18-11.13,2.37-19.42,3.31-25.1c1.18-6.63,2.13-11.13,2.84-13.26
			c0.95-1.66,2.84-3.08,5.68-4.26c2.84-1.66,5.92-2.84,9.47-3.79c3.55-0.95,6.63-1.42,9.47-1.42c2.84-0.24,4.74-0.24,5.68,0
			c0.71,0.24,0.95,4.26,0.95,11.84c0,7.34-0.24,16.57-0.95,27.94c-0.24,11.13-0.71,23.2-1.42,36.46
			c-0.71,13.02-1.18,25.34-1.89,36.94c-0.24,11.6-0.71,22.02-0.95,30.78C1367.21,509.6,1367.68,515.05,1368.16,517.18z"/>
	</g>
</g>
</svg>
